<svg xmlns="http://www.w3.org/2000/svg" xmlns:xlink="http://www.w3.org/1999/xlink" xmlns:lucid="lucid" width="1781" height="1041"><g transform="translate(-185.5 -767.5)" lucid:page-tab-id="0_0"><path d="M222.6 1808H194a8 8 0 0 1-8-8V776a8 8 0 0 1 8-8h28.6zM223.1 768h39.5v300h-39.5M223.1 1068h39.5v420h-39.5M223.1 1488h39.5v320h-39.5" stroke="#333" fill="#fff"/><path d="M262.6 768H1958a8 8 0 0 1 8 8v292H262.6zM262.6 1068H1966v420H262.6zM1966 1488v312a8 8 0 0 1-8 8H262.6v-320z" stroke="#333" fill="none"/><use xlink:href="#a" transform="matrix(-1.8369701987210297e-16,-1,1,-1.8369701987210297e-16,186,1808) translate(470.125 22.1)"/><use xlink:href="#b" transform="matrix(-1.8369701987210297e-16,-1,1,-1.8369701987210297e-16,222.60000000000002,1068) translate(122.1 23.6)"/><use xlink:href="#c" transform="matrix(-1.8369701987210297e-16,-1,1,-1.8369701987210297e-16,222.60000000000014,1488) translate(167.075 23.6)"/><use xlink:href="#d" transform="matrix(-1.8369701987210297e-16,-1,1,-1.8369701987210297e-16,222.60000000000014,1807.9999999999998) translate(130.075 23.6)"/><path d="M367 910.44h42.12" stroke="#333" fill="none"/><path d="M367 910.9h-.56l.06-.44-.02-.5h.53z" stroke="#333" stroke-width=".05" fill="#333"/><path d="M423.88 910.44l-14.26 4.63v-9.27z" stroke="#333" fill="#333"/><path d="M442 871.5c-8.84 0-16 7.15-16 16v48c0 8.83 7.16 16 16 16h128c8.84 0 16-7.17 16-16v-48c0-8.85-7.16-16-16-16z" stroke="#333" fill="#fff"/><use xlink:href="#e" transform="matrix(1,0,0,1,434,879.491420769356) translate(20.533333333333324 17.06666666666667)"/><use xlink:href="#f" transform="matrix(1,0,0,1,434,879.491420769356) translate(99.76296296296297 17.06666666666667)"/><use xlink:href="#g" transform="matrix(1,0,0,1,434,879.491420769356) translate(25.866666666666667 42.66666666666667)"/><use xlink:href="#h" transform="matrix(1,0,0,1,434,879.491420769356) translate(43.58518518518518 68.26666666666668)"/><path d="M587 911.5h114.94" stroke="#333" fill="none"/><path d="M587 911.97h-.5v-.95h.5z" stroke="#333" stroke-width=".05" fill="#333"/><path d="M716.7 911.5l-14.26 4.63v-9.27z" stroke="#333" fill="#333"/><path d="M719.15 911.5l23.42-17.9L766 911.5l-23.43 17.9z" stroke="#333" fill="#fff"/><path d="M672.57 941.7a1.7 1.7 0 0 1 1.7-1.7h136.6a1.7 1.7 0 0 1 1.7 1.7 1.7 1.7 0 0 1-1.7 1.7h-136.6a1.7 1.7 0 0 1-1.7-1.7z" fill="none"/><use xlink:href="#i" transform="matrix(1,0,0,1,672.5732763926709,940) translate(4.537037037037038 12.444444444444446)"/><use xlink:href="#j" transform="matrix(1,0,0,1,672.5732763926709,940) translate(50.20987654320988 12.444444444444446)"/><path d="M1198.47 1212.94c-10.2 0-18.47 8.27-18.47 18.47v55.42c0 10.2 8.27 18.47 18.47 18.47h197.93c10.2 0 18.47-8.28 18.47-18.48v-55.4c0-10.2-8.27-18.48-18.47-18.48z" stroke="#333" fill="#fff"/><use xlink:href="#k" transform="matrix(1,0,0,1,1188,1220.9396589463267) translate(28.586419753086417 14.222222222222223)"/><use xlink:href="#l" transform="matrix(1,0,0,1,1188,1220.9396589463267) translate(48.339506172839506 14.222222222222223)"/><use xlink:href="#m" transform="matrix(1,0,0,1,1188,1220.9396589463267) translate(120.3395061728395 14.222222222222223)"/><use xlink:href="#n" transform="matrix(1,0,0,1,1188,1220.9396589463267) translate(140.0925925925926 14.222222222222223)"/><use xlink:href="#o" transform="matrix(1,0,0,1,1188,1220.9396589463267) translate(175.5987654320988 14.222222222222223)"/><use xlink:href="#p" transform="matrix(1,0,0,1,1188,1220.9396589463267) translate(1.9938271604938222 35.55555555555556)"/><use xlink:href="#q" transform="matrix(1,0,0,1,1188,1220.9396589463267) translate(89.74691358024691 35.55555555555556)"/><use xlink:href="#r" transform="matrix(1,0,0,1,1188,1220.9396589463267) translate(149.99382716049382 35.55555555555556)"/><use xlink:href="#s" transform="matrix(1,0,0,1,1188,1220.9396589463267) translate(18.759259259259238 56.88888888888889)"/><use xlink:href="#t" transform="matrix(1,0,0,1,1188,1220.9396589463267) translate(44.38888888888887 56.88888888888889)"/><use xlink:href="#u" transform="matrix(1,0,0,1,1188,1220.9396589463267) translate(64.14197530864196 56.88888888888889)"/><use xlink:href="#v" transform="matrix(1,0,0,1,1188,1220.9396589463267) translate(122.31481481481481 56.88888888888889)"/><use xlink:href="#w" transform="matrix(1,0,0,1,1188,1220.9396589463267) translate(175.5493827160494 56.88888888888889)"/><use xlink:href="#x" transform="matrix(1,0,0,1,1188,1220.9396589463267) translate(35.549382716049365 78.22222222222223)"/><use xlink:href="#y" transform="matrix(1,0,0,1,1188,1220.9396589463267) translate(127.25308641975309 78.22222222222223)"/><use xlink:href="#z" transform="matrix(1,0,0,1,1188,1220.9396589463267) translate(157.820987654321 78.22222222222223)"/><path d="M1508.87 1259.12c0 10.55-10.94 19.1-24.44 19.1-13.5 0-24.43-8.55-24.43-19.1 0-10.56 10.94-19.12 24.43-19.12 13.5 0 24.44 8.56 24.44 19.12z" stroke="#333" fill="#fff"/><path d="M1499.1 1259.12c0 6.33-6.57 11.47-14.67 11.47s-14.66-5.15-14.66-11.48c0-6.34 6.57-11.47 14.66-11.47 8.1 0 14.66 5.13 14.66 11.47z" stroke="#333"/><path d="M366 910.44c0 11.04-8.95 20-20 20s-20-8.96-20-20c0-11.05 8.95-20 20-20s20 8.95 20 20zM320 1248c0 11.05-8.95 20-20 20s-20-8.95-20-20 8.95-20 20-20 20 8.95 20 20z" stroke="#fcce14"/><path d="M1216 1560c-8.84 0-16 7.16-16 16v48c0 8.84 7.16 16 16 16h128c8.84 0 16-7.16 16-16v-48c0-8.84-7.16-16-16-16z" stroke="#333" fill="#fff"/><use xlink:href="#A" transform="matrix(1,0,0,1,1208,1568) translate(3.2222222222222285 24)"/><use xlink:href="#B" transform="matrix(1,0,0,1,1208,1568) translate(25.44444444444445 24)"/><use xlink:href="#C" transform="matrix(1,0,0,1,1208,1568) translate(94.22222222222223 24)"/><use xlink:href="#D" transform="matrix(1,0,0,1,1208,1568) translate(17.72222222222223 48)"/><use xlink:href="#E" transform="matrix(1,0,0,1,1208,1568) translate(39.94444444444445 48)"/><path d="M750.46 827.45l-1.12.46-1.54.95-1.38 1.18-1.17 1.37-.94 1.55-.7 1.66-.4 1.77-.15 1.83v54.26h-.95v-54.3l.15-1.93.46-1.9.76-1.82 1.02-1.66 1.27-1.5 1.5-1.26 1.66-1.02 1.56-.64zm78.66-.8h-58.3v-.95h58.3z" stroke="#333" stroke-width=".05" fill="#333"/><path d="M743.05 893.32l-.48-.36-.47.36v-.88h.95z" fill="#333"/><path stroke="#333" stroke-width=".05" fill="#333"/><path d="M843.88 826.18l-14.26 4.63v-9.26z" fill="#333"/><path d="M845.42 826.18l-16.28 5.3v-10.6zm-15.33 3.98l12.25-3.98-12.26-3.98z" stroke="#333" stroke-width=".05" fill="#333"/><use xlink:href="#F" transform="matrix(1,0,0,1,750.4605100173756,811.5097319365863) translate(0.005000000000000782 19.555555555555557)"/><path d="M783.12 988.92v.95h-11.68v-.95zm-40.07-11.54l.14 1.82.4 1.76.7 1.67.1.16v1.8l-.94-1.54-.75-1.8-.45-1.9-.15-1.95v-46.88h.95z" stroke="#333" stroke-width=".05" fill="#333"/><path d="M742.57 930.02l.48-.36v.88h-.95v-.88z" fill="#333"/><path stroke="#333" stroke-width=".05" fill="#333"/><path d="M797.88 989.4l-14.26 4.63v-9.27z" fill="#333"/><path d="M799.42 989.4l-16.28 5.28V984.1zm-15.33 3.98l12.25-4-12.26-3.97z" stroke="#333" stroke-width=".05" fill="#333"/><use xlink:href="#G" transform="matrix(1,0,0,1,744.4072762282035,976.0619237571399) translate(0.005000000000000782 17.77777777777778)"/><path d="M860.37 790.25c-7.94 0-14.37 6.44-14.37 14.37v43.1c0 7.95 6.43 14.38 14.37 14.38h91.26c7.94 0 14.37-6.43 14.37-14.37v-43.1c0-7.94-6.43-14.38-14.37-14.38z" stroke="#333" fill="#fff"/><use xlink:href="#H" transform="matrix(1,0,0,1,854,798.2520394813753) translate(7.111111111111107 20)"/><use xlink:href="#I" transform="matrix(1,0,0,1,854,798.2520394813753) translate(-7.888888888888893 44)"/><path d="M824 929.4c-13.25 0-24 10.74-24 24v72c0 13.25 10.75 24 24 24h118c13.25 0 24-10.75 24-24v-72c0-13.26-10.75-24-24-24z" stroke="#333" fill="#fff"/><use xlink:href="#J" transform="matrix(1,0,0,1,808,937.3952570904733) translate(13.388888888888886 16)"/><use xlink:href="#K" transform="matrix(1,0,0,1,808,937.3952570904733) translate(84.5 16)"/><use xlink:href="#L" transform="matrix(1,0,0,1,808,937.3952570904733) translate(17.861111111111114 40)"/><use xlink:href="#M" transform="matrix(1,0,0,1,808,937.3952570904733) translate(46.69444444444445 40)"/><use xlink:href="#N" transform="matrix(1,0,0,1,808,937.3952570904733) translate(68.91666666666667 40)"/><use xlink:href="#O" transform="matrix(1,0,0,1,808,937.3952570904733) translate(109.91666666666667 40)"/><use xlink:href="#P" transform="matrix(1,0,0,1,808,937.3952570904733) translate(6.25 64)"/><use xlink:href="#Q" transform="matrix(1,0,0,1,808,937.3952570904733) translate(114.91666666666667 64)"/><use xlink:href="#R" transform="matrix(1,0,0,1,808,937.3952570904733) translate(3.5277777777777857 88)"/><use xlink:href="#S" transform="matrix(1,0,0,1,808,937.3952570904733) translate(106.52777777777779 88)"/><use xlink:href="#T" transform="matrix(1,0,0,1,808,937.3952570904733) translate(123.19444444444444 88)"/><use xlink:href="#U" transform="matrix(1,0,0,1,808,937.3952570904733) translate(42.861111111111114 112)"/><path d="M346 1648c0 11.05-8.95 20-20 20s-20-8.95-20-20 8.95-20 20-20 20 8.95 20 20z" stroke="#fcce14"/><path d="M1081.42 772.2c-11.83 0-21.42 9.58-21.42 21.4v64.28c0 11.83 9.6 21.42 21.42 21.42h94.6c11.82 0 21.4-9.6 21.4-21.42V793.6c0-11.82-9.58-21.4-21.4-21.4z" stroke="#333" fill="#fff"/><use xlink:href="#V" transform="matrix(1,0,0,1,1068,780.1878403524254) translate(29.888888888888886 14.222222222222223)"/><use xlink:href="#W" transform="matrix(1,0,0,1,1068,780.1878403524254) translate(24.55555555555555 35.55555555555556)"/><use xlink:href="#X" transform="matrix(1,0,0,1,1068,780.1878403524254) translate(87.5679012345679 35.55555555555556)"/><use xlink:href="#Y" transform="matrix(1,0,0,1,1068,780.1878403524254) translate(24.999999999999993 56.88888888888889)"/><use xlink:href="#Z" transform="matrix(1,0,0,1,1068,780.1878403524254) translate(14.679012345679013 78.22222222222223)"/><use xlink:href="#s" transform="matrix(1,0,0,1,1068,780.1878403524254) translate(66.87654320987656 78.22222222222223)"/><use xlink:href="#aa" transform="matrix(1,0,0,1,1068,780.1878403524254) translate(92.50617283950618 78.22222222222223)"/><use xlink:href="#ab" transform="matrix(1,0,0,1,1068,780.1878403524254) translate(34.38271604938271 99.55555555555557)"/><path d="M967 826.18h45.78a.2.2 0 0 0 .22-.22.2.2 0 0 1 .22-.2h29.9" stroke="#333" fill="none"/><path d="M967 826.65h-.5v-.95h.5z" stroke="#333" stroke-width=".05" fill="#333"/><path d="M1057.88 825.75l-14.26 4.63v-9.27z" stroke="#333" fill="#333"/><path d="M747 1663h61.9" stroke="#333" fill="none"/><path d="M747 1663.47h-.5v-.94h.5z" stroke="#333" stroke-width=".05" fill="#333"/><path d="M823.67 1663l-14.26 4.63v-9.27z" stroke="#333" fill="#333"/><path d="M1289.58 780.43c-10.1 0-18.3 8.2-18.3 18.3v54.9c0 10.1 8.2 18.3 18.3 18.3h178.27c10.1 0 18.3-8.2 18.3-18.3v-54.9c0-10.1-8.2-18.3-18.3-18.3z" stroke="#333" fill="#fff"/><use xlink:href="#ac" transform="matrix(1,0,0,1,1279.283399201428,788.4306882185749) translate(0.27777777777777146 18)"/><use xlink:href="#ad" transform="matrix(1,0,0,1,1279.283399201428,788.4306882185749) translate(66.88888888888889 18)"/><use xlink:href="#ae" transform="matrix(1,0,0,1,1279.283399201428,788.4306882185749) translate(101.27777777777777 18)"/><use xlink:href="#S" transform="matrix(1,0,0,1,1279.283399201428,788.4306882185749) translate(2.4444444444444287 42)"/><use xlink:href="#af" transform="matrix(1,0,0,1,1279.283399201428,788.4306882185749) translate(19.111111111111093 42)"/><use xlink:href="#L" transform="matrix(1,0,0,1,1279.283399201428,788.4306882185749) translate(85.61111111111109 42)"/><use xlink:href="#M" transform="matrix(1,0,0,1,1279.283399201428,788.4306882185749) translate(114.44444444444443 42)"/><use xlink:href="#ag" transform="matrix(1,0,0,1,1279.283399201428,788.4306882185749) translate(136.66666666666666 42)"/><use xlink:href="#ah" transform="matrix(1,0,0,1,1279.283399201428,788.4306882185749) translate(37.41666666666667 66)"/><use xlink:href="#ai" transform="matrix(1,0,0,1,1279.283399201428,788.4306882185749) translate(66.25 66)"/><path d="M826 1663l37.5-37.5L901 1663l-37.5 37.5z" stroke="#333" fill="#fff"/><use xlink:href="#aj" transform="matrix(1,0,0,1,826,1700.5) translate(21.97222222222222 16)"/><use xlink:href="#ak" transform="matrix(1,0,0,1,826,1700.5) translate(-5.666666666666664 40)"/><use xlink:href="#al" transform="matrix(1,0,0,1,826,1700.5) translate(17.52777777777778 64)"/><use xlink:href="#am" transform="matrix(1,0,0,1,826,1700.5) translate(-18.44444444444445 88)"/><path d="M1198.43 825.75h35.7a.2.2 0 0 1 .23.2.2.2 0 0 0 .2.23h19.84" stroke="#333" fill="none"/><path d="M1198.45 826.22h-.52v-.95h.52z" stroke="#333" stroke-width=".05" fill="#333"/><path d="M1269.16 826.18l-14.26 4.63v-9.26z" stroke="#333" fill="#333"/><path d="M602 1623c-8.84 0-16 7.16-16 16v48c0 8.84 7.16 16 16 16h128c8.84 0 16-7.16 16-16v-48c0-8.84-7.16-16-16-16z" stroke="#333" fill="#fff"/><use xlink:href="#an" transform="matrix(1,0,0,1,594,1631) translate(28.16666666666667 16)"/><use xlink:href="#ao" transform="matrix(1,0,0,1,594,1631) translate(52.611111111111114 16)"/><use xlink:href="#ap" transform="matrix(1,0,0,1,594,1631) translate(22.666666666666664 40)"/><use xlink:href="#aq" transform="matrix(1,0,0,1,594,1631) translate(97 40)"/><use xlink:href="#E" transform="matrix(1,0,0,1,594,1631) translate(28.833333333333336 64)"/><path d="M920 1140c-11.05 0-20 8.95-20 20v60c0 11.05 8.95 20 20 20h140c11.05 0 20-8.95 20-20v-60c0-11.05-8.95-20-20-20z" stroke="#333" fill="#fff"/><use xlink:href="#ar" transform="matrix(1,0,0,1,908,1148) translate(32.611111111111114 16)"/><use xlink:href="#as" transform="matrix(1,0,0,1,908,1148) translate(114.72222222222223 16)"/><use xlink:href="#at" transform="matrix(1,0,0,1,908,1148) translate(41 40)"/><use xlink:href="#au" transform="matrix(1,0,0,1,908,1148) translate(106.33333333333333 40)"/><use xlink:href="#av" transform="matrix(1,0,0,1,908,1148) translate(14.3611111111111 64)"/><use xlink:href="#aw" transform="matrix(1,0,0,1,908,1148) translate(120.80555555555556 64)"/><use xlink:href="#ax" transform="matrix(1,0,0,1,908,1148) translate(38.833333333333336 88)"/><path d="M1582.85 772.2c-12.62 0-22.85 10.22-22.85 22.84v68.56c0 12.62 10.23 22.85 22.85 22.85h88.73c12.62 0 22.85-10.23 22.85-22.85v-68.56c0-12.62-10.23-22.85-22.85-22.85z" stroke="#333" fill="#fff"/><use xlink:href="#ay" transform="matrix(1,0,0,1,1568,780.1878403524254) translate(14.583333333333343 17.5)"/><use xlink:href="#az" transform="matrix(1,0,0,1,1568,780.1878403524254) translate(10.777777777777779 41.5)"/><use xlink:href="#aA" transform="matrix(1,0,0,1,1568,780.1878403524254) translate(15.722222222222229 65.5)"/><use xlink:href="#T" transform="matrix(1,0,0,1,1568,780.1878403524254) translate(80 65.5)"/><use xlink:href="#aB" transform="matrix(1,0,0,1,1568,780.1878403524254) translate(15.138888888888893 89.5)"/><path d="M506.48 1087.48l.14 1.82.42 1.76.7 1.67.94 1.54 1.17 1.38 1.38 1.17 1.54.95 1.67.7 1.76.4 1.82.16h460l1.93.15 1.9.45 1.8.75 1.68 1.03 1.5 1.28 1.26 1.5 1.02 1.66.75 1.8.45 1.9.15 1.94V1139h-.95v-27.48l-.14-1.82-.42-1.76-.7-1.67-.94-1.54-1.17-1.38-1.38-1.17-1.54-.95-1.67-.7-1.76-.4-1.82-.16h-460l-1.93-.15-1.9-.45-1.8-.75-1.68-1.03-1.5-1.28-1.26-1.5-1.02-1.66-.75-1.8-.45-1.9-.16-1.94V968.38h.96z" stroke="#333" stroke-width=".05" fill="#333"/><path d="M990.48 1139.5h-.96v-.5h.96z" fill="#333"/><path stroke="#333" stroke-width=".05" fill="#333"/><path d="M510.63 967.88h-9.26L506 953.6z" fill="#333"/><path d="M511.3 968.35h-10.6l5.3-16.28zm-9.28-.95h7.96L506 955.15z" stroke="#333" stroke-width=".05" fill="#333"/><path d="M1020 960.6l38.72-30.16 38.7 30.16-38.7 30.16z" stroke="#333" fill="#fff"/><use xlink:href="#aC" transform="matrix(1,0,0,1,1020,990.7616224463344) translate(21.24691358024691 14.222222222222223)"/><use xlink:href="#aD" transform="matrix(1,0,0,1,1020,990.7616224463344) translate(26.185185185185183 14.222222222222223)"/><use xlink:href="#aE" transform="matrix(1,0,0,1,1020,990.7616224463344) translate(-4.308641975308639 35.55555555555556)"/><use xlink:href="#s" transform="matrix(1,0,0,1,1020,990.7616224463344) translate(10.87654320987654 56.88888888888889)"/><use xlink:href="#aF" transform="matrix(1,0,0,1,1020,990.7616224463344) translate(36.50617283950618 56.88888888888889)"/><use xlink:href="#aG" transform="matrix(1,0,0,1,1020,990.7616224463344) translate(5.02469135802469 78.22222222222223)"/><path d="M1059.2 1019.38l.13 1.82.43 1.76.7 1.67.93 1.54 1.17 1.37 1.37 1.18 1.54.94 1.68.7 1.75.42 1.83.14h55.32v.95h-55.35l-1.93-.15-1.9-.46-1.82-.75-1.67-1-1.5-1.28-1.26-1.5-1.02-1.66-.75-1.8-.46-1.9-.16-1.95v-27.5h.95zm198.08-29.1h-11.6l-1.82.15-1.75.42-1.67.7-1.54.94-1.38 1.16-1.18 1.37-.94 1.55-.7 1.67-.42 1.75-.14 1.83v17.58l-.15 1.95-.47 1.9-.75 1.8-1.02 1.68-1.27 1.5-1.5 1.26-1.67 1-1.8.76-1.9.46-1.95.15h-63.18v-.95h63.15l1.82-.14 1.76-.42 1.67-.7 1.54-.94 1.37-1.18 1.2-1.37.93-1.54.7-1.67.42-1.76.14-1.82v-17.6l.14-1.92.46-1.9.75-1.82 1.02-1.67 1.27-1.5 1.5-1.26 1.66-1 1.8-.76 1.9-.46 1.95-.15h11.63z" stroke="#333" stroke-width=".05" fill="#333"/><path d="M1059.2 991.9h-.96v-.88l.48.38.47-.38z" fill="#333"/><path stroke="#333" stroke-width=".05" fill="#333"/><path d="M1272.05 989.8l-14.27 4.64v-9.27z" fill="#333"/><path d="M1273.6 989.8l-16.3 5.3v-10.58zm-15.34 4l12.25-4-12.24-3.97z" stroke="#333" stroke-width=".05" fill="#333"/><use xlink:href="#aH" transform="matrix(1,0,0,1,1126.0544088397403,1015.3954479649401) translate(0.004999999999999005 21.333333333333336)"/><path d="M1297.3 904.27c-12.77 0-23.13 10.36-23.13 23.14v69.45c0 12.8 10.36 23.15 23.14 23.15h119.55c12.8 0 23.15-10.36 23.15-23.15V927.4c0-12.77-10.36-23.13-23.15-23.13z" stroke="#333" fill="#fff"/><use xlink:href="#aI" transform="matrix(1,0,0,1,1282.1660079857206,912.2665145749193) translate(27.641975308641968 14.222222222222223)"/><use xlink:href="#aJ" transform="matrix(1,0,0,1,1282.1660079857206,912.2665145749193) translate(96.7283950617284 14.222222222222223)"/><use xlink:href="#aK" transform="matrix(1,0,0,1,1282.1660079857206,912.2665145749193) translate(1.098765432098773 35.55555555555556)"/><use xlink:href="#s" transform="matrix(1,0,0,1,1282.1660079857206,912.2665145749193) translate(92.65432098765432 35.55555555555556)"/><use xlink:href="#aF" transform="matrix(1,0,0,1,1282.1660079857206,912.2665145749193) translate(118.28395061728395 35.55555555555556)"/><use xlink:href="#aL" transform="matrix(1,0,0,1,1282.1660079857206,912.2665145749193) translate(9.469135802469125 56.88888888888889)"/><use xlink:href="#aM" transform="matrix(1,0,0,1,1282.1660079857206,912.2665145749193) translate(71.54320987654322 56.88888888888889)"/><use xlink:href="#aN" transform="matrix(1,0,0,1,1282.1660079857206,912.2665145749193) translate(86.35802469135803 56.88888888888889)"/><use xlink:href="#s" transform="matrix(1,0,0,1,1282.1660079857206,912.2665145749193) translate(10.87654320987653 78.22222222222223)"/><use xlink:href="#t" transform="matrix(1,0,0,1,1282.1660079857206,912.2665145749193) translate(36.50617283950616 78.22222222222223)"/><use xlink:href="#u" transform="matrix(1,0,0,1,1282.1660079857206,912.2665145749193) translate(56.25925925925925 78.22222222222223)"/><use xlink:href="#w" transform="matrix(1,0,0,1,1282.1660079857206,912.2665145749193) translate(114.4320987654321 78.22222222222223)"/><use xlink:href="#aO" transform="matrix(1,0,0,1,1282.1660079857206,912.2665145749193) translate(38.03703703703703 99.55555555555557)"/><path d="M1441 962.13h132.87a6.13 6.13 0 0 1 6.13 6.13 6.13 6.13 0 0 0 6.13 6.14h117" stroke="#333" fill="none"/><path d="M1441 962.6h-.5v-.94h.5z" stroke="#333" stroke-width=".05" fill="#333"/><path d="M1717.88 974.4l-14.26 4.63v-9.27z" stroke="#333" fill="#333"/><path d="M1415.87 1259.12h27.25" stroke="#333" fill="none"/><path d="M1415.88 1259.6h-.5v-.96h.5z" stroke="#333" stroke-width=".05" fill="#333"/><path d="M1457.88 1259.12l-14.27 4.63.02-9.27z" stroke="#333" fill="#333"/><path d="M967 989.4h13.84a12 12 0 0 0 12-12v-6.84a9.96 9.96 0 0 1 9.96-9.96" stroke="#333" fill="none"/><path d="M967 989.87h-.5v-.95h.5z" stroke="#333" stroke-width=".05" fill="#333"/><path d="M1017.57 960.6l-14.27 4.63v-9.27z" stroke="#333" fill="#333"/><path d="M1760 974.23c0 12.55-8.95 22.73-20 22.73s-20-10.18-20-22.73c0-12.56 8.95-22.74 20-22.74s20 10.17 20 22.73z" stroke="#333" fill="#fff"/><path d="M1752 974.23c0 7.53-5.37 13.64-12 13.64s-12-6.1-12-13.64c0-7.54 5.37-13.64 12-13.64s12 6.1 12 13.63z" stroke="#333"/><path d="M1224.32 910.1l1.78.43 1.7.7 1.54.95 1.4 1.2 1.18 1.38.95 1.56.7 1.68.43 1.78.14 1.78.13 1.7.4 1.64.64 1.55.88 1.43 1.1 1.28 1.27 1.1 1.43.87 1.55.64 1.63.4 1.7.12h12.42v.94h-12.47l-1.8-.14-1.77-.43-1.68-.7-1.56-.95-1.4-1.2-1.2-1.38-.94-1.55-.7-1.7-.43-1.78-.14-1.78-.14-1.7-.4-1.64-.63-1.55-.88-1.43-1.1-1.28-1.27-1.1-1.43-.86-1.55-.64-1.63-.4-1.7-.13h-66.95v-.94h67zm-89.17.8h-64.42l-1.82.15-1.74.43-1.68.7-1.54.93-1.37 1.2-1.18 1.36-.95 1.55-.7 1.67-.4 1.76-.16 1.83v6.84h-.96v-6.88l.15-1.93.45-1.92.75-1.8 1.02-1.68 1.27-1.5 1.48-1.26 1.67-1.02 1.8-.75 1.92-.46 1.93-.14h64.45z" stroke="#333" stroke-width=".05" fill="#333"/><path d="M1059.2 930.17l-.48-.37-.48.37v-.88h.95z" fill="#333"/><path stroke="#333" stroke-width=".05" fill="#333"/><path d="M1272.05 932.77l-14.27 4.63v-9.27z" fill="#333"/><path d="M1273.6 932.77l-16.3 5.3v-10.6zm-15.34 3.98l12.25-3.98-12.24-3.98z" stroke="#333" stroke-width=".05" fill="#333"/><g><use xlink:href="#F" transform="matrix(1,0,0,1,1135.148148148148,895.7696360253273) translate(0.005000000000000782 19.555555555555557)"/></g><path d="M456 1208c-8.84 0-16 7.16-16 16v48c0 8.84 7.16 16 16 16h128c8.84 0 16-7.16 16-16v-48c0-8.84-7.16-16-16-16z" stroke="#333" fill="#fff"/><g><use xlink:href="#A" transform="matrix(1,0,0,1,448,1216) translate(14.305555555555543 16)"/><use xlink:href="#aP" transform="matrix(1,0,0,1,448,1216) translate(36.527777777777764 16)"/><use xlink:href="#aQ" transform="matrix(1,0,0,1,448,1216) translate(32.05555555555556 40)"/><use xlink:href="#aR" transform="matrix(1,0,0,1,448,1216) translate(95.27777777777779 40)"/><use xlink:href="#E" transform="matrix(1,0,0,1,448,1216) translate(28.833333333333336 64)"/></g><path d="M666 1622v-154.5a12 12 0 0 0-12-12H532a12 12 0 0 1-12-12v-138.62" stroke="#333" fill="none"/><path d="M666.48 1622.5h-.96v-.5h.96z" stroke="#333" stroke-width=".05" fill="#333"/><path d="M520 1290.12l4.63 14.26h-9.26z" stroke="#333" fill="#333"/><path d="M347 1648h27.5a12 12 0 0 1 12 12v71.5a12 12 0 0 0 12 12H654a12 12 0 0 0 12-12v-11.62" stroke="#333" fill="none"/><path d="M347 1648.47h-.56l.06-.45-.02-.5h.53z" stroke="#333" stroke-width=".05" fill="#333"/><path d="M666 1705.12l4.63 14.26h-9.26z" stroke="#333" fill="#333"/><path d="M1117.18 1663.47H902.2v-.94h214.98zm163.3-6.55l-.1 1-.23 1-.4.96-.53.88-.67.8-.8.66-.87.54-.96.4-1 .23-1.02.07h-137.54v-.94h137.5l.9-.08.87-.2.8-.34.77-.45.67-.58.58-.67.46-.76.35-.8.2-.87.08-.92z" stroke="#333" stroke-width=".05" fill="#333"/><path d="M902.22 1663.47h-1l.5-.47-.5-.47h1z" fill="#333"/><path stroke="#333" stroke-width=".05" fill="#333"/><path d="M1284.63 1656.38h-9.27l4.64-14.26z" fill="#333"/><path d="M1285.3 1656.86h-10.6l5.3-16.28zm-9.28-.95h7.96l-3.98-12.25z" stroke="#333" stroke-width=".05" fill="#333"/><g><use xlink:href="#aS" transform="matrix(1,0,0,1,1117.1796713498816,1647) translate(0.005000000000000782 21.333333333333336)"/></g><path d="M1040 1560c0 11.05-8.95 20-20 20s-20-8.95-20-20 8.95-20 20-20 20 8.95 20 20z" stroke="#333" fill="#fff"/><path d="M1032 1560c0 6.63-5.37 12-12 12s-12-5.37-12-12 5.37-12 12-12 12 5.37 12 12z" stroke="#333"/><path d="M884.3 1560.47h-8.78l-1.82.15-1.76.42-1.67.7-1.54.94-1.38 1.17-1.17 1.38-.95 1.54-.7 1.67-.4 1.76-.15 1.82v52.27H863v-52.32l.16-1.93.45-1.9.75-1.8 1.03-1.68 1.28-1.5 1.5-1.26 1.66-1.02 1.8-.75 1.9-.45 1.94-.15h8.8zm98.82 0h-69.2v-.94h69.2z" stroke="#333" stroke-width=".05" fill="#333"/><path d="M863.98 1625.27l-.48-.48-.48.47v-1h.96z" fill="#333"/><path stroke="#333" stroke-width=".05" fill="#333"/><path d="M997.88 1560l-14.26 4.63v-9.27z" fill="#333"/><path d="M999.42 1560l-16.28 5.3v-10.6zm-15.33 3.98l12.25-3.98-12.26-3.98z" stroke="#333" stroke-width=".05" fill="#333"/><g><use xlink:href="#aT" transform="matrix(1,0,0,1,884.2885826488227,1544) translate(0.005000000000000782 21.333333333333336)"/></g><path d="M900 1568a8 8 0 0 1 8-8h224a8 8 0 0 1 8 8v44a8 8 0 0 1-8 8H908a8 8 0 0 1-8-8z" fill="none"/><g><use xlink:href="#aU" transform="matrix(1,0,0,1,900,1560) translate(18.95061728395062 34.44444444444444)"/><use xlink:href="#aV" transform="matrix(1,0,0,1,900,1560) translate(106.35802469135803 34.44444444444444)"/><use xlink:href="#aW" transform="matrix(1,0,0,1,900,1560) translate(137.22222222222223 34.44444444444444)"/><use xlink:href="#aX" transform="matrix(1,0,0,1,900,1560) translate(160.61728395061726 34.44444444444444)"/></g><path d="M1487.15 826.18h34.35a1.57 1.57 0 0 1 1.58 1.57 1.57 1.57 0 0 0 1.57 1.57h18.47" stroke="#333" fill="none"/><path d="M1487.16 826.65h-.5v-.95h.5z" stroke="#333" stroke-width=".05" fill="#333"/><path d="M1557.88 829.32l-14.26 4.63v-9.27z" stroke="#333" fill="#333"/><path d="M691 1248l37.5-37.5L766 1248l-37.5 37.5z" stroke="#333" fill="#fff"/><g><use xlink:href="#aj" transform="matrix(1,0,0,1,691,1285.5) translate(21.97222222222222 16)"/><use xlink:href="#ak" transform="matrix(1,0,0,1,691,1285.5) translate(-5.666666666666664 40)"/><use xlink:href="#aY" transform="matrix(1,0,0,1,691,1285.5) translate(3.1111111111111143 64)"/><use xlink:href="#aZ" transform="matrix(1,0,0,1,691,1285.5) translate(48.611111111111114 64)"/><use xlink:href="#ba" transform="matrix(1,0,0,1,691,1285.5) translate(5.361111111111107 88)"/></g><path d="M601 1248h72.9" stroke="#333" fill="none"/><path d="M601 1248.47h-.5v-.94h.5z" stroke="#333" stroke-width=".05" fill="#333"/><path d="M688.67 1248l-14.26 4.63v-9.27z" stroke="#333" fill="#333"/><path d="M321 1248h102.12" stroke="#333" fill="none"/><path d="M321 1248.47h-.56l.06-.45-.02-.5h.53z" stroke="#333" stroke-width=".05" fill="#333"/><path d="M437.88 1248l-14.26 4.63v-9.27z" stroke="#333" fill="#333"/><path d="M1695.43 829.32h38.44a12 12 0 0 1 12 12v94.37" stroke="#333" fill="none"/><path d="M1695.45 829.8h-.52v-.96h.52z" stroke="#333" stroke-width=".05" fill="#333"/><path d="M1745.87 950.45l-4.64-14.26h9.27z" stroke="#333" fill="#333"/><path d="M810.1 1173.83H740.5l-1.82.14-1.76.42-1.67.7-1.54.93-1.38 1.17-1.17 1.38-.95 1.54-.7 1.67-.4 1.75-.15 1.82v23.92H728v-23.96l.16-1.94.45-1.9.75-1.8 1.03-1.68 1.28-1.5 1.5-1.26 1.66-1.02 1.8-.75 1.9-.47 1.94-.15h69.6zm73.02 0h-43.4v-.95h43.4z" stroke="#333" stroke-width=".05" fill="#333"/><path d="M728.98 1210.27l-.48-.48-.48.47v-1h.96z" fill="#333"/><path stroke="#333" stroke-width=".05" fill="#333"/><path d="M897.88 1173.35l-14.26 4.64v-9.28z" fill="#333"/><path d="M899.42 1173.35l-16.28 5.3v-10.6zm-15.33 4l12.25-4-12.26-3.98z" stroke="#333" stroke-width=".05" fill="#333"/><g><use xlink:href="#bb" transform="matrix(1,0,0,1,810.0860265209016,1157.3536020325807) translate(0.005000000000000782 21.333333333333336)"/></g><path d="M728.98 1347.98l.14 1.82.42 1.76.7 1.67.94 1.54 1.17 1.38 1.38 1.17 1.54.95 1.67.7 1.76.4 1.82.16h83.1v.94h-83.14l-1.93-.15-1.9-.45-1.8-.75-1.68-1.03-1.5-1.28-1.26-1.5-1.02-1.66-.75-1.8-.45-1.9-.15-1.94v-61.3h.95zm164.14 11.55v.94H842.8v-.94z" stroke="#333" stroke-width=".05" fill="#333"/><path d="M728.98 1286.72H728v-1l.48.5.48-.5z" fill="#333"/><path stroke="#333" stroke-width=".05" fill="#333"/><path d="M907.88 1360l-14.26 4.63v-9.27z" fill="#333"/><path d="M909.42 1360l-16.28 5.3v-10.6zm-15.33 3.98l12.25-3.98-12.26-3.98z" stroke="#333" stroke-width=".05" fill="#333"/><g><use xlink:href="#bc" transform="matrix(1,0,0,1,823.6180535854905,1344) translate(0.005000000000000782 21.333333333333336)"/></g><path d="M926 1320c-8.84 0-16 7.16-16 16v48c0 8.84 7.16 16 16 16h128c8.84 0 16-7.16 16-16v-48c0-8.84-7.16-16-16-16z" stroke="#333" fill="#fff"/><g><use xlink:href="#bd" transform="matrix(1,0,0,1,918,1328) translate(26.074999999999996 14.4)"/><use xlink:href="#be" transform="matrix(1,0,0,1,918,1328) translate(102.92500000000001 14.4)"/><use xlink:href="#bf" transform="matrix(1,0,0,1,918,1328) translate(23.14999999999999 36)"/><use xlink:href="#bg" transform="matrix(1,0,0,1,918,1328) translate(105.85000000000001 36)"/><use xlink:href="#bh" transform="matrix(1,0,0,1,918,1328) translate(43.55 57.6)"/></g><path d="M1071 1360h42a12 12 0 0 0 12-12v-76.88a12 12 0 0 1 12-12h26.12" stroke="#333" fill="none"/><path d="M1071 1360.47h-.5v-.94h.5z" stroke="#333" stroke-width=".05" fill="#333"/><path d="M1177.88 1259.12l-14.26 4.63v-9.27z" stroke="#333" fill="#333"/><path d="M990 1401v42.5a12 12 0 0 0 12 12h266a12 12 0 0 1 12 12v75.62" stroke="#333" fill="none"/><path d="M990.48 1401h-.96v-.5h.96z" stroke="#333" stroke-width=".05" fill="#333"/><path d="M1280 1557.88l-4.63-14.26h9.27z" stroke="#333" fill="#333"/><path d="M1361 1600h82.12" stroke="#333" fill="none"/><path d="M1361 1600.47h-.5v-.94h.5z" stroke="#333" stroke-width=".05" fill="#333"/><path d="M1457.88 1600l-14.26 4.63v-9.27z" stroke="#333" fill="#333"/><path d="M1500 1600c0 11.05-8.95 20-20 20s-20-8.95-20-20 8.95-20 20-20 20 8.95 20 20z" stroke="#333" fill="#fff"/><path d="M1492 1600c0 6.63-5.37 12-12 12s-12-5.37-12-12 5.37-12 12-12 12 5.37 12 12z" stroke="#333"/><path d="M1360 1608a8 8 0 0 1 8-8h224a8 8 0 0 1 8 8v44a8 8 0 0 1-8 8h-224a8 8 0 0 1-8-8z" fill="none"/><g><use xlink:href="#bi" transform="matrix(1,0,0,1,1360,1600) translate(38.150000000000006 33.6)"/><use xlink:href="#bj" transform="matrix(1,0,0,1,1360,1600) translate(108.95 33.6)"/><use xlink:href="#bk" transform="matrix(1,0,0,1,1360,1600) translate(133.95 33.6)"/><use xlink:href="#bl" transform="matrix(1,0,0,1,1360,1600) translate(152.9 33.6)"/></g><defs><path d="M115-3C79 11 28 4 28-45v-112H4v-33h27l15-45h31v45h36v33H77v99c-1 23 16 31 38 25v30" id="bm"/><path d="M25-224v-37h50v37H25zM25 0v-190h50V0H25" id="bn"/><path d="M185-48c-13 30-37 53-82 52C43 2 14-33 14-96s30-98 90-98c62 0 83 45 84 108H66c0 31 8 55 39 56 18 0 30-7 34-22zm-45-69c5-46-57-63-70-21-2 6-4 13-4 21h74" id="bo"/><path d="M135-194c87-1 58 113 63 194h-50c-7-57 23-157-34-157-59 0-34 97-39 157H25l-1-190h47c2 12-1 28 3 38 12-26 28-41 61-42" id="bp"/><path d="M88-194c31-1 46 15 58 34l-1-101h50l1 261h-48c-2-10 0-23-3-31C134-8 116 4 84 4 32 4 16-41 15-95c0-56 19-97 73-99zm17 164c33 0 40-30 41-66 1-37-9-64-41-64s-38 30-39 65c0 43 13 65 39 65" id="bq"/><path d="M133-34C117-15 103 5 69 4 32 3 11-16 11-54c-1-60 55-63 116-61 1-26-3-47-28-47-18 1-26 9-28 27l-52-2c7-38 36-58 82-57s74 22 75 68l1 82c-1 14 12 18 25 15v27c-30 8-71 5-69-32zm-48 3c29 0 43-24 42-57-32 0-66-3-65 30 0 17 8 27 23 27" id="br"/><path d="M24 0v-54h51V0H24" id="bs"/><path d="M144 0l-44-69L55 0H2l70-98-66-92h53l41 62 40-62h54l-67 91 71 99h-54" id="bt"/><path d="M110-194c64 0 96 36 96 99 0 64-35 99-97 99-61 0-95-36-95-99 0-62 34-99 96-99zm-1 164c35 0 45-28 45-65 0-40-10-65-43-65-34 0-45 26-45 65 0 36 10 65 43 65" id="bu"/><g id="a"><use transform="matrix(0.05,0,0,0.05,0,0)" xlink:href="#bm"/><use transform="matrix(0.05,0,0,0.05,5.95,0)" xlink:href="#bn"/><use transform="matrix(0.05,0,0,0.05,10.95,0)" xlink:href="#bo"/><use transform="matrix(0.05,0,0,0.05,20.95,0)" xlink:href="#bp"/><use transform="matrix(0.05,0,0,0.05,31.899999999999995,0)" xlink:href="#bq"/><use transform="matrix(0.05,0,0,0.05,42.85,0)" xlink:href="#br"/><use transform="matrix(0.05,0,0,0.05,52.85,0)" xlink:href="#bs"/><use transform="matrix(0.05,0,0,0.05,57.85,0)" xlink:href="#bo"/><use transform="matrix(0.05,0,0,0.05,67.85,0)" xlink:href="#bt"/><use transform="matrix(0.05,0,0,0.05,77.85,0)" xlink:href="#bn"/><use transform="matrix(0.05,0,0,0.05,82.85,0)" xlink:href="#bm"/><use transform="matrix(0.05,0,0,0.05,88.8,0)" xlink:href="#bu"/></g><path d="M24-248c120-7 223 5 221 122C244-46 201 0 124 0H24v-248zM76-40c74 7 117-18 117-86 0-67-45-88-117-82v168" id="bv"/><path d="M85 4C-2 5 27-109 22-190h50c7 57-23 150 33 157 60-5 35-97 40-157h50l1 190h-47c-2-12 1-28-3-38-12 25-28 42-61 42" id="bw"/><path d="M135-194c87-1 58 113 63 194h-50c-7-57 23-157-34-157-59 0-34 97-39 157H25l-1-190h47c2 12-1 28 3 38 12-26 28-41 61-42zm47-65c-2 27-9 52-40 51-27-1-66-46-73 0H45c0-29 9-51 39-51 28 0 66 44 74 0h24" id="bx"/><g id="b"><use transform="matrix(0.05,0,0,0.05,0,0)" xlink:href="#bv"/><use transform="matrix(0.05,0,0,0.05,12.950000000000001,0)" xlink:href="#bw"/><use transform="matrix(0.05,0,0,0.05,23.900000000000002,0)" xlink:href="#bo"/><use transform="matrix(0.05,0,0,0.05,33.900000000000006,0)" xlink:href="#bx"/><use transform="matrix(0.05,0,0,0.05,44.85000000000001,0)" xlink:href="#bu"/></g><path d="M24 0v-248h195v40H76v63h132v40H76v65h150V0H24" id="by"/><path d="M220-157c-53 9-28 100-34 157h-49v-107c1-27-5-49-29-50C55-147 81-57 75 0H25l-1-190h47c2 12-1 28 3 38 10-53 101-56 108 0 13-22 24-43 59-42 82 1 51 116 57 194h-49v-107c-1-25-5-48-29-50" id="bz"/><path d="M135-194c53 0 70 44 70 98 0 56-19 98-73 100-31 1-45-17-59-34 3 33 2 69 2 105H25l-1-265h48c2 10 0 23 3 31 11-24 29-35 60-35zM114-30c33 0 39-31 40-66 0-38-9-64-40-64-56 0-55 130 0 130" id="bA"/><path d="M25 0v-261h50V0H25" id="bB"/><g id="c"><use transform="matrix(0.05,0,0,0.05,0,0)" xlink:href="#by"/><use transform="matrix(0.05,0,0,0.05,12,0)" xlink:href="#bz"/><use transform="matrix(0.05,0,0,0.05,28,0)" xlink:href="#bA"/><use transform="matrix(0.05,0,0,0.05,38.95,0)" xlink:href="#bB"/><use transform="matrix(0.05,0,0,0.05,43.95,0)" xlink:href="#bo"/><use transform="matrix(0.05,0,0,0.05,53.95,0)" xlink:href="#br"/><use transform="matrix(0.05,0,0,0.05,63.95,0)" xlink:href="#bq"/><use transform="matrix(0.05,0,0,0.05,74.9,0)" xlink:href="#bu"/></g><path d="M67-125c0 53 21 87 73 88 37 1 54-22 65-47l45 17C233-25 199 4 140 4 58 4 20-42 15-125 8-235 124-281 211-232c18 10 29 29 36 50l-46 12c-8-25-30-41-62-41-52 0-71 34-72 86" id="bC"/><g id="d"><use transform="matrix(0.05,0,0,0.05,0,0)" xlink:href="#bC"/><use transform="matrix(0.05,0,0,0.05,12.950000000000001,0)" xlink:href="#bB"/><use transform="matrix(0.05,0,0,0.05,17.950000000000003,0)" xlink:href="#bn"/><use transform="matrix(0.05,0,0,0.05,22.950000000000003,0)" xlink:href="#bo"/><use transform="matrix(0.05,0,0,0.05,32.95,0)" xlink:href="#bp"/><use transform="matrix(0.05,0,0,0.05,43.900000000000006,0)" xlink:href="#bm"/><use transform="matrix(0.05,0,0,0.05,49.85000000000001,0)" xlink:href="#bo"/></g><path d="M114-163C36-179 61-72 57 0H25l-1-190h30c1 12-1 29 2 39 6-27 23-49 58-41v29" id="bD"/><path d="M100-194c63 0 86 42 84 106H49c0 40 14 67 53 68 26 1 43-12 49-29l28 8c-11 28-37 45-77 45C44 4 14-33 15-96c1-61 26-98 85-98zm52 81c6-60-76-77-97-28-3 7-6 17-6 28h103" id="bE"/><path d="M108 0H70L1-190h34L89-25l56-165h34" id="bF"/><path d="M24-231v-30h32v30H24zM24 0v-190h32V0H24" id="bG"/><path d="M135-143c-3-34-86-38-87 0 15 53 115 12 119 90S17 21 10-45l28-5c4 36 97 45 98 0-10-56-113-15-118-90-4-57 82-63 122-42 12 7 21 19 24 35" id="bH"/><path d="M100-194c62-1 85 37 85 99 1 63-27 99-86 99S16-35 15-95c0-66 28-99 85-99zM99-20c44 1 53-31 53-75 0-43-8-75-51-75s-53 32-53 75 10 74 51 75" id="bI"/><path d="M117-194c89-4 53 116 60 194h-32v-121c0-31-8-49-39-48C34-167 62-67 57 0H25l-1-190h30c1 10-1 24 2 32 11-22 29-35 61-36" id="bJ"/><g id="e"><use transform="matrix(0.05925925925925927,0,0,0.05925925925925927,0,0)" xlink:href="#bD"/><use transform="matrix(0.05925925925925927,0,0,0.05925925925925927,7.051851851851853,0)" xlink:href="#bE"/><use transform="matrix(0.05925925925925927,0,0,0.05925925925925927,18.903703703703705,0)" xlink:href="#bF"/><use transform="matrix(0.05925925925925927,0,0,0.05925925925925927,29.570370370370373,0)" xlink:href="#bG"/><use transform="matrix(0.05925925925925927,0,0,0.05925925925925927,34.25185185185185,0)" xlink:href="#bH"/><use transform="matrix(0.05925925925925927,0,0,0.05925925925925927,44.918518518518525,0)" xlink:href="#bG"/><use transform="matrix(0.05925925925925927,0,0,0.05925925925925927,49.60000000000001,0)" xlink:href="#bI"/><use transform="matrix(0.05925925925925927,0,0,0.05925925925925927,61.45185185185186,0)" xlink:href="#bJ"/></g><path d="M85-194c31 0 48 13 60 33l-1-100h32l1 261h-30c-2-10 0-23-3-31C134-8 116 4 85 4 32 4 16-35 15-94c0-66 23-100 70-100zm9 24c-40 0-46 34-46 75 0 40 6 74 45 74 42 0 51-32 51-76 0-42-9-74-50-73" id="bK"/><g id="f"><use transform="matrix(0.05925925925925927,0,0,0.05925925925925927,0,0)" xlink:href="#bK"/><use transform="matrix(0.05925925925925927,0,0,0.05925925925925927,11.851851851851853,0)" xlink:href="#bE"/></g><path d="M59-47c-2 24 18 29 38 22v24C64 9 27 4 27-40v-127H5v-23h24l9-43h21v43h35v23H59v120" id="bL"/><path d="M141-36C126-15 110 5 73 4 37 3 15-17 15-53c-1-64 63-63 125-63 3-35-9-54-41-54-24 1-41 7-42 31l-33-3c5-37 33-52 76-52 45 0 72 20 72 64v82c-1 20 7 32 28 27v20c-31 9-61-2-59-35zM48-53c0 20 12 33 32 33 41-3 63-29 60-74-43 2-92-5-92 41" id="bM"/><g id="g"><use transform="matrix(0.05925925925925927,0,0,0.05925925925925927,0,0)" xlink:href="#bG"/><use transform="matrix(0.05925925925925927,0,0,0.05925925925925927,4.681481481481482,0)" xlink:href="#bJ"/><use transform="matrix(0.05925925925925927,0,0,0.05925925925925927,16.533333333333335,0)" xlink:href="#bF"/><use transform="matrix(0.05925925925925927,0,0,0.05925925925925927,27.200000000000003,0)" xlink:href="#bE"/><use transform="matrix(0.05925925925925927,0,0,0.05925925925925927,39.05185185185186,0)" xlink:href="#bJ"/><use transform="matrix(0.05925925925925927,0,0,0.05925925925925927,50.90370370370371,0)" xlink:href="#bL"/><use transform="matrix(0.05925925925925927,0,0,0.05925925925925927,56.829629629629636,0)" xlink:href="#bM"/><use transform="matrix(0.05925925925925927,0,0,0.05925925925925927,68.68148148148148,0)" xlink:href="#bD"/><use transform="matrix(0.05925925925925927,0,0,0.05925925925925927,75.73333333333333,0)" xlink:href="#bG"/><use transform="matrix(0.05925925925925927,0,0,0.05925925925925927,80.41481481481482,0)" xlink:href="#bI"/></g><path d="M96-169c-40 0-48 33-48 73s9 75 48 75c24 0 41-14 43-38l32 2c-6 37-31 61-74 61-59 0-76-41-82-99-10-93 101-131 147-64 4 7 5 14 7 22l-32 3c-4-21-16-35-41-35" id="bN"/><path d="M84 4C-5 8 30-112 23-190h32v120c0 31 7 50 39 49 72-2 45-101 50-169h31l1 190h-30c-1-10 1-25-2-33-11 22-28 36-60 37" id="bO"/><path d="M24 0v-261h32V0H24" id="bP"/><g id="h"><use transform="matrix(0.05925925925925927,0,0,0.05925925925925927,0,0)" xlink:href="#bM"/><use transform="matrix(0.05925925925925927,0,0,0.05925925925925927,11.851851851851853,0)" xlink:href="#bN"/><use transform="matrix(0.05925925925925927,0,0,0.05925925925925927,22.51851851851852,0)" xlink:href="#bL"/><use transform="matrix(0.05925925925925927,0,0,0.05925925925925927,28.444444444444446,0)" xlink:href="#bO"/><use transform="matrix(0.05925925925925927,0,0,0.05925925925925927,40.2962962962963,0)" xlink:href="#bM"/><use transform="matrix(0.05925925925925927,0,0,0.05925925925925927,52.14814814814815,0)" xlink:href="#bP"/></g><path d="M121-226c-27-7-43 5-38 36h38v33H83V0H34v-157H6v-33h28c-9-59 32-81 87-68v32" id="bQ"/><g id="i"><use transform="matrix(0.04320987654320988,0,0,0.04320987654320988,0,0)" xlink:href="#bQ"/><use transform="matrix(0.04320987654320988,0,0,0.04320987654320988,5.1419753086419755,0)" xlink:href="#br"/><use transform="matrix(0.04320987654320988,0,0,0.04320987654320988,13.783950617283953,0)" xlink:href="#bB"/><use transform="matrix(0.04320987654320988,0,0,0.04320987654320988,18.10493827160494,0)" xlink:href="#bm"/><use transform="matrix(0.04320987654320988,0,0,0.04320987654320988,23.246913580246915,0)" xlink:href="#br"/><use transform="matrix(0.04320987654320988,0,0,0.04320987654320988,31.888888888888893,0)" xlink:href="#bp"/></g><path d="M135-150c-39-12-60 13-60 57V0H25l-1-190h47c2 13-1 29 3 40 6-28 27-53 61-41v41" id="bR"/><path d="M190-63c-7 42-38 67-86 67-59 0-84-38-90-98-12-110 154-137 174-36l-49 2c-2-19-15-32-35-32-30 0-35 28-38 64-6 74 65 87 74 30" id="bS"/><path d="M137-138c1-29-70-34-71-4 15 46 118 7 119 86 1 83-164 76-172 9l43-7c4 19 20 25 44 25 33 8 57-30 24-41C81-84 22-81 20-136c-2-80 154-74 161-7" id="bT"/><path d="M110-251c83-7 118 89 53 130-17 10-36 21-38 46H78c2-56 65-53 71-103 2-21-15-35-38-34-25 1-41 14-44 38l-50-2c6-48 39-70 93-75zM77 0v-47h51V0H77" id="bU"/><g id="j"><use transform="matrix(0.04320987654320988,0,0,0.04320987654320988,0,0)" xlink:href="#bA"/><use transform="matrix(0.04320987654320988,0,0,0.04320987654320988,9.462962962962964,0)" xlink:href="#bR"/><use transform="matrix(0.04320987654320988,0,0,0.04320987654320988,15.512345679012347,0)" xlink:href="#bu"/><use transform="matrix(0.04320987654320988,0,0,0.04320987654320988,24.97530864197531,0)" xlink:href="#bq"/><use transform="matrix(0.04320987654320988,0,0,0.04320987654320988,34.43827160493827,0)" xlink:href="#bw"/><use transform="matrix(0.04320987654320988,0,0,0.04320987654320988,43.901234567901234,0)" xlink:href="#bS"/><use transform="matrix(0.04320987654320988,0,0,0.04320987654320988,52.54320987654321,0)" xlink:href="#bm"/><use transform="matrix(0.04320987654320988,0,0,0.04320987654320988,57.68518518518518,0)" xlink:href="#bu"/><use transform="matrix(0.04320987654320988,0,0,0.04320987654320988,67.14814814814815,0)" xlink:href="#bT"/><use transform="matrix(0.04320987654320988,0,0,0.04320987654320988,75.79012345679013,0)" xlink:href="#bU"/></g><g id="k"><use transform="matrix(0.04938271604938272,0,0,0.04938271604938272,0,0)" xlink:href="#br"/><use transform="matrix(0.04938271604938272,0,0,0.04938271604938272,9.876543209876544,0)" xlink:href="#bB"/></g><path d="M12 0v-35l95-120H19v-35h142v35L67-36h103V0H12" id="bV"/><g id="l"><use transform="matrix(0.04938271604938272,0,0,0.04938271604938272,0,0)" xlink:href="#bQ"/><use transform="matrix(0.04938271604938272,0,0,0.04938271604938272,5.8765432098765435,0)" xlink:href="#bn"/><use transform="matrix(0.04938271604938272,0,0,0.04938271604938272,10.814814814814817,0)" xlink:href="#bp"/><use transform="matrix(0.04938271604938272,0,0,0.04938271604938272,21.629629629629633,0)" xlink:href="#br"/><use transform="matrix(0.04938271604938272,0,0,0.04938271604938272,31.506172839506174,0)" xlink:href="#bB"/><use transform="matrix(0.04938271604938272,0,0,0.04938271604938272,36.44444444444445,0)" xlink:href="#bn"/><use transform="matrix(0.04938271604938272,0,0,0.04938271604938272,41.38271604938272,0)" xlink:href="#bV"/><use transform="matrix(0.04938271604938272,0,0,0.04938271604938272,50.27160493827161,0)" xlink:href="#br"/><use transform="matrix(0.04938271604938272,0,0,0.04938271604938272,60.14814814814815,0)" xlink:href="#bR"/></g><g id="m"><use transform="matrix(0.04938271604938272,0,0,0.04938271604938272,0,0)" xlink:href="#bo"/><use transform="matrix(0.04938271604938272,0,0,0.04938271604938272,9.876543209876544,0)" xlink:href="#bB"/></g><path d="M76-54c-1 42 2 86-19 110H24C36 42 46 24 48 0H25v-54h51" id="bW"/><g id="n"><use transform="matrix(0.04938271604938272,0,0,0.04938271604938272,0,0)" xlink:href="#bq"/><use transform="matrix(0.04938271604938272,0,0,0.04938271604938272,10.814814814814815,0)" xlink:href="#bn"/><use transform="matrix(0.04938271604938272,0,0,0.04938271604938272,15.753086419753087,0)" xlink:href="#br"/><use transform="matrix(0.04938271604938272,0,0,0.04938271604938272,25.629629629629633,0)" xlink:href="#bW"/></g><g id="o"><use transform="matrix(0.04938271604938272,0,0,0.04938271604938272,0,0)" xlink:href="#bo"/><use transform="matrix(0.04938271604938272,0,0,0.04938271604938272,9.876543209876544,0)" xlink:href="#bB"/></g><g id="p"><use transform="matrix(0.04938271604938272,0,0,0.04938271604938272,0,0)" xlink:href="#bo"/><use transform="matrix(0.04938271604938272,0,0,0.04938271604938272,9.876543209876544,0)" xlink:href="#bz"/><use transform="matrix(0.04938271604938272,0,0,0.04938271604938272,25.679012345679016,0)" xlink:href="#bA"/><use transform="matrix(0.04938271604938272,0,0,0.04938271604938272,36.49382716049383,0)" xlink:href="#bB"/><use transform="matrix(0.04938271604938272,0,0,0.04938271604938272,41.4320987654321,0)" xlink:href="#bo"/><use transform="matrix(0.04938271604938272,0,0,0.04938271604938272,51.308641975308646,0)" xlink:href="#br"/><use transform="matrix(0.04938271604938272,0,0,0.04938271604938272,61.18518518518519,0)" xlink:href="#bq"/><use transform="matrix(0.04938271604938272,0,0,0.04938271604938272,72,0)" xlink:href="#bu"/></g><g id="q"><use transform="matrix(0.04938271604938272,0,0,0.04938271604938272,0,0)" xlink:href="#bR"/><use transform="matrix(0.04938271604938272,0,0,0.04938271604938272,6.913580246913581,0)" xlink:href="#bo"/><use transform="matrix(0.04938271604938272,0,0,0.04938271604938272,16.790123456790127,0)" xlink:href="#br"/><use transform="matrix(0.04938271604938272,0,0,0.04938271604938272,26.666666666666668,0)" xlink:href="#bB"/><use transform="matrix(0.04938271604938272,0,0,0.04938271604938272,31.60493827160494,0)" xlink:href="#bn"/><use transform="matrix(0.04938271604938272,0,0,0.04938271604938272,36.543209876543216,0)" xlink:href="#bV"/><use transform="matrix(0.04938271604938272,0,0,0.04938271604938272,45.4320987654321,0)" xlink:href="#br"/></g><g id="r"><use transform="matrix(0.04938271604938272,0,0,0.04938271604938272,0,0)" xlink:href="#bS"/><use transform="matrix(0.04938271604938272,0,0,0.04938271604938272,9.876543209876544,0)" xlink:href="#bw"/><use transform="matrix(0.04938271604938272,0,0,0.04938271604938272,20.69135802469136,0)" xlink:href="#bo"/><use transform="matrix(0.04938271604938272,0,0,0.04938271604938272,30.567901234567906,0)" xlink:href="#bp"/><use transform="matrix(0.04938271604938272,0,0,0.04938271604938272,41.38271604938272,0)" xlink:href="#bm"/><use transform="matrix(0.04938271604938272,0,0,0.04938271604938272,47.25925925925927,0)" xlink:href="#br"/><use transform="matrix(0.04938271604938272,0,0,0.04938271604938272,57.135802469135804,0)" xlink:href="#bT"/></g><g id="s"><use transform="matrix(0.04938271604938272,0,0,0.04938271604938272,0,0)" xlink:href="#bo"/><use transform="matrix(0.04938271604938272,0,0,0.04938271604938272,9.876543209876544,0)" xlink:href="#bp"/></g><g id="t"><use transform="matrix(0.04938271604938272,0,0,0.04938271604938272,0,0)" xlink:href="#bB"/><use transform="matrix(0.04938271604938272,0,0,0.04938271604938272,4.938271604938272,0)" xlink:href="#br"/></g><path d="M135-194c52 0 70 43 70 98 0 56-19 99-73 100-30 1-46-15-58-35L72 0H24l1-261h50v104c11-23 29-37 60-37zM114-30c31 0 40-27 40-66 0-37-7-63-39-63s-41 28-41 65c0 36 8 64 40 64" id="bX"/><g id="u"><use transform="matrix(0.04938271604938272,0,0,0.04938271604938272,0,0)" xlink:href="#bB"/><use transform="matrix(0.04938271604938272,0,0,0.04938271604938272,4.938271604938272,0)" xlink:href="#bn"/><use transform="matrix(0.04938271604938272,0,0,0.04938271604938272,9.876543209876544,0)" xlink:href="#bX"/><use transform="matrix(0.04938271604938272,0,0,0.04938271604938272,20.69135802469136,0)" xlink:href="#bR"/><use transform="matrix(0.04938271604938272,0,0,0.04938271604938272,27.604938271604947,0)" xlink:href="#bo"/><use transform="matrix(0.04938271604938272,0,0,0.04938271604938272,37.48148148148149,0)" xlink:href="#bm"/><use transform="matrix(0.04938271604938272,0,0,0.04938271604938272,43.35802469135803,0)" xlink:href="#br"/></g><g id="v"><use transform="matrix(0.04938271604938272,0,0,0.04938271604938272,0,0)" xlink:href="#bT"/><use transform="matrix(0.04938271604938272,0,0,0.04938271604938272,9.876543209876544,0)" xlink:href="#bu"/><use transform="matrix(0.04938271604938272,0,0,0.04938271604938272,20.69135802469136,0)" xlink:href="#bX"/><use transform="matrix(0.04938271604938272,0,0,0.04938271604938272,31.506172839506174,0)" xlink:href="#bR"/><use transform="matrix(0.04938271604938272,0,0,0.04938271604938272,38.41975308641976,0)" xlink:href="#bo"/></g><g id="w"><use transform="matrix(0.04938271604938272,0,0,0.04938271604938272,0,0)" xlink:href="#bB"/><use transform="matrix(0.04938271604938272,0,0,0.04938271604938272,4.938271604938272,0)" xlink:href="#br"/><use transform="matrix(0.04938271604938272,0,0,0.04938271604938272,14.814814814814817,0)" xlink:href="#bT"/></g><path d="M195-6C206 82 75 100 31 46c-4-6-6-13-8-21l49-6c3 16 16 24 34 25 40 0 42-37 40-79-11 22-30 35-61 35-53 0-70-43-70-97 0-56 18-96 73-97 30 0 46 14 59 34l2-30h47zm-90-29c32 0 41-27 41-63 0-35-9-62-40-62-32 0-39 29-40 63 0 36 9 62 39 62" id="bY"/><g id="x"><use transform="matrix(0.04938271604938272,0,0,0.04938271604938272,0,0)" xlink:href="#bY"/><use transform="matrix(0.04938271604938272,0,0,0.04938271604938272,10.814814814814815,0)" xlink:href="#br"/><use transform="matrix(0.04938271604938272,0,0,0.04938271604938272,20.69135802469136,0)" xlink:href="#bp"/><use transform="matrix(0.04938271604938272,0,0,0.04938271604938272,31.506172839506174,0)" xlink:href="#br"/><use transform="matrix(0.04938271604938272,0,0,0.04938271604938272,41.38271604938272,0)" xlink:href="#bp"/><use transform="matrix(0.04938271604938272,0,0,0.04938271604938272,52.19753086419754,0)" xlink:href="#bS"/><use transform="matrix(0.04938271604938272,0,0,0.04938271604938272,62.074074074074076,0)" xlink:href="#bn"/><use transform="matrix(0.04938271604938272,0,0,0.04938271604938272,67.01234567901236,0)" xlink:href="#br"/><use transform="matrix(0.04938271604938272,0,0,0.04938271604938272,76.8888888888889,0)" xlink:href="#bT"/></g><g id="y"><use transform="matrix(0.04938271604938272,0,0,0.04938271604938272,0,0)" xlink:href="#bq"/><use transform="matrix(0.04938271604938272,0,0,0.04938271604938272,10.814814814814815,0)" xlink:href="#bo"/><use transform="matrix(0.04938271604938272,0,0,0.04938271604938272,20.69135802469136,0)" xlink:href="#bB"/></g><g id="z"><use transform="matrix(0.04938271604938272,0,0,0.04938271604938272,0,0)" xlink:href="#bq"/><use transform="matrix(0.04938271604938272,0,0,0.04938271604938272,10.814814814814815,0)" xlink:href="#bn"/><use transform="matrix(0.04938271604938272,0,0,0.04938271604938272,15.753086419753087,0)" xlink:href="#br"/></g><g id="A"><use transform="matrix(0.05555555555555555,0,0,0.05555555555555555,0,0)" xlink:href="#bo"/><use transform="matrix(0.05555555555555555,0,0,0.05555555555555555,11.11111111111111,0)" xlink:href="#bB"/></g><g id="B"><use transform="matrix(0.05555555555555555,0,0,0.05555555555555555,0,0)" xlink:href="#bS"/><use transform="matrix(0.05555555555555555,0,0,0.05555555555555555,11.11111111111111,0)" xlink:href="#bB"/><use transform="matrix(0.05555555555555555,0,0,0.05555555555555555,16.666666666666664,0)" xlink:href="#bn"/><use transform="matrix(0.05555555555555555,0,0,0.05555555555555555,22.22222222222222,0)" xlink:href="#bo"/><use transform="matrix(0.05555555555555555,0,0,0.05555555555555555,33.33333333333333,0)" xlink:href="#bp"/><use transform="matrix(0.05555555555555555,0,0,0.05555555555555555,45.49999999999999,0)" xlink:href="#bm"/><use transform="matrix(0.05555555555555555,0,0,0.05555555555555555,52.1111111111111,0)" xlink:href="#bo"/></g><g id="C"><use transform="matrix(0.05555555555555555,0,0,0.05555555555555555,0,0)" xlink:href="#bA"/><use transform="matrix(0.05555555555555555,0,0,0.05555555555555555,12.166666666666666,0)" xlink:href="#br"/><use transform="matrix(0.05555555555555555,0,0,0.05555555555555555,23.27777777777778,0)" xlink:href="#bY"/><use transform="matrix(0.05555555555555555,0,0,0.05555555555555555,35.44444444444444,0)" xlink:href="#br"/></g><g id="D"><use transform="matrix(0.05555555555555555,0,0,0.05555555555555555,0,0)" xlink:href="#bo"/><use transform="matrix(0.05555555555555555,0,0,0.05555555555555555,11.11111111111111,0)" xlink:href="#bB"/></g><g id="E"><use transform="matrix(0.05555555555555555,0,0,0.05555555555555555,0,0)" xlink:href="#bA"/><use transform="matrix(0.05555555555555555,0,0,0.05555555555555555,12.166666666666666,0)" xlink:href="#bR"/><use transform="matrix(0.05555555555555555,0,0,0.05555555555555555,19.944444444444443,0)" xlink:href="#bu"/><use transform="matrix(0.05555555555555555,0,0,0.05555555555555555,32.11111111111111,0)" xlink:href="#bq"/><use transform="matrix(0.05555555555555555,0,0,0.05555555555555555,44.27777777777777,0)" xlink:href="#bw"/><use transform="matrix(0.05555555555555555,0,0,0.05555555555555555,56.444444444444436,0)" xlink:href="#bS"/><use transform="matrix(0.05555555555555555,0,0,0.05555555555555555,67.55555555555554,0)" xlink:href="#bm"/><use transform="matrix(0.05555555555555555,0,0,0.05555555555555555,74.16666666666666,0)" xlink:href="#bu"/></g><g id="F"><use transform="matrix(0.06790123456790124,0,0,0.06790123456790124,0,0)" xlink:href="#bT"/><use transform="matrix(0.06790123456790124,0,0,0.06790123456790124,13.580246913580249,0)" xlink:href="#bn"/></g><g id="G"><use transform="matrix(0.06172839506172839,0,0,0.06172839506172839,0,0)" xlink:href="#bp"/><use transform="matrix(0.06172839506172839,0,0,0.06172839506172839,13.518518518518517,0)" xlink:href="#bu"/></g><g id="H"><use transform="matrix(0.05555555555555555,0,0,0.05555555555555555,0,0)" xlink:href="#bS"/><use transform="matrix(0.05555555555555555,0,0,0.05555555555555555,11.11111111111111,0)" xlink:href="#bu"/><use transform="matrix(0.05555555555555555,0,0,0.05555555555555555,23.27777777777778,0)" xlink:href="#bp"/><use transform="matrix(0.05555555555555555,0,0,0.05555555555555555,35.44444444444444,0)" xlink:href="#bm"/><use transform="matrix(0.05555555555555555,0,0,0.05555555555555555,42.05555555555556,0)" xlink:href="#br"/><use transform="matrix(0.05555555555555555,0,0,0.05555555555555555,53.16666666666667,0)" xlink:href="#bS"/><use transform="matrix(0.05555555555555555,0,0,0.05555555555555555,64.27777777777779,0)" xlink:href="#bm"/><use transform="matrix(0.05555555555555555,0,0,0.05555555555555555,70.8888888888889,0)" xlink:href="#br"/><use transform="matrix(0.05555555555555555,0,0,0.05555555555555555,82.00000000000001,0)" xlink:href="#bR"/></g><path d="M128 0H69L1-190h53L99-40l48-150h52" id="bZ"/><g id="I"><use transform="matrix(0.05555555555555555,0,0,0.05555555555555555,0,0)" xlink:href="#bA"/><use transform="matrix(0.05555555555555555,0,0,0.05555555555555555,12.166666666666666,0)" xlink:href="#bR"/><use transform="matrix(0.05555555555555555,0,0,0.05555555555555555,19.944444444444443,0)" xlink:href="#bu"/><use transform="matrix(0.05555555555555555,0,0,0.05555555555555555,32.11111111111111,0)" xlink:href="#bZ"/><use transform="matrix(0.05555555555555555,0,0,0.05555555555555555,43.222222222222214,0)" xlink:href="#bo"/><use transform="matrix(0.05555555555555555,0,0,0.05555555555555555,54.33333333333333,0)" xlink:href="#bo"/><use transform="matrix(0.05555555555555555,0,0,0.05555555555555555,65.44444444444444,0)" xlink:href="#bq"/><use transform="matrix(0.05555555555555555,0,0,0.05555555555555555,77.61111111111111,0)" xlink:href="#bu"/><use transform="matrix(0.05555555555555555,0,0,0.05555555555555555,89.77777777777779,0)" xlink:href="#bR"/><use transform="matrix(0.05555555555555555,0,0,0.05555555555555555,97.55555555555556,0)" xlink:href="#bo"/><use transform="matrix(0.05555555555555555,0,0,0.05555555555555555,108.66666666666667,0)" xlink:href="#bT"/></g><g id="J"><use transform="matrix(0.05555555555555555,0,0,0.05555555555555555,0,0)" xlink:href="#bR"/><use transform="matrix(0.05555555555555555,0,0,0.05555555555555555,7.777777777777778,0)" xlink:href="#bo"/><use transform="matrix(0.05555555555555555,0,0,0.05555555555555555,18.88888888888889,0)" xlink:href="#bZ"/><use transform="matrix(0.05555555555555555,0,0,0.05555555555555555,30,0)" xlink:href="#bn"/><use transform="matrix(0.05555555555555555,0,0,0.05555555555555555,35.55555555555556,0)" xlink:href="#bT"/><use transform="matrix(0.05555555555555555,0,0,0.05555555555555555,46.66666666666667,0)" xlink:href="#br"/><use transform="matrix(0.05555555555555555,0,0,0.05555555555555555,57.777777777777786,0)" xlink:href="#bR"/></g><path d="M114-157C55-157 80-60 75 0H25v-261h50l-1 109c12-26 28-41 61-42 86-1 58 113 63 194h-50c-7-57 23-157-34-157" id="ca"/><g id="K"><use transform="matrix(0.05555555555555555,0,0,0.05555555555555555,0,0)" xlink:href="#bQ"/><use transform="matrix(0.05555555555555555,0,0,0.05555555555555555,6.611111111111111,0)" xlink:href="#bo"/><use transform="matrix(0.05555555555555555,0,0,0.05555555555555555,17.72222222222222,0)" xlink:href="#bS"/><use transform="matrix(0.05555555555555555,0,0,0.05555555555555555,28.833333333333332,0)" xlink:href="#ca"/><use transform="matrix(0.05555555555555555,0,0,0.05555555555555555,41,0)" xlink:href="#br"/></g><g id="L"><use transform="matrix(0.05555555555555555,0,0,0.05555555555555555,0,0)" xlink:href="#bo"/><use transform="matrix(0.05555555555555555,0,0,0.05555555555555555,11.11111111111111,0)" xlink:href="#bp"/></g><g id="M"><use transform="matrix(0.05555555555555555,0,0,0.05555555555555555,0,0)" xlink:href="#bB"/><use transform="matrix(0.05555555555555555,0,0,0.05555555555555555,5.555555555555555,0)" xlink:href="#br"/></g><path d="M84 4C32 4 15-41 15-95c0-55 18-99 73-99 29 0 47 12 58 34l2-30h48l-1 265h-49V-32C136-9 114 4 84 4zm21-34c32 0 41-29 41-66 0-36-9-64-40-64-33 0-39 30-40 65 0 43 13 65 39 65" id="cb"/><g id="N"><use transform="matrix(0.05555555555555555,0,0,0.05555555555555555,0,0)" xlink:href="#cb"/><use transform="matrix(0.05555555555555555,0,0,0.05555555555555555,12.166666666666666,0)" xlink:href="#bw"/><use transform="matrix(0.05555555555555555,0,0,0.05555555555555555,24.333333333333332,0)" xlink:href="#bo"/></g><g id="O"><use transform="matrix(0.05555555555555555,0,0,0.05555555555555555,0,0)" xlink:href="#bT"/><use transform="matrix(0.05555555555555555,0,0,0.05555555555555555,11.11111111111111,0)" xlink:href="#bo"/></g><g id="P"><use transform="matrix(0.05555555555555555,0,0,0.05555555555555555,0,0)" xlink:href="#br"/><use transform="matrix(0.05555555555555555,0,0,0.05555555555555555,11.11111111111111,0)" xlink:href="#bY"/><use transform="matrix(0.05555555555555555,0,0,0.05555555555555555,23.27777777777778,0)" xlink:href="#bR"/><use transform="matrix(0.05555555555555555,0,0,0.05555555555555555,31.05555555555556,0)" xlink:href="#bo"/><use transform="matrix(0.05555555555555555,0,0,0.05555555555555555,42.16666666666667,0)" xlink:href="#bY"/><use transform="matrix(0.05555555555555555,0,0,0.05555555555555555,54.333333333333336,0)" xlink:href="#br"/><use transform="matrix(0.05555555555555555,0,0,0.05555555555555555,65.44444444444444,0)" xlink:href="#bR"/><use transform="matrix(0.05555555555555555,0,0,0.05555555555555555,73.22222222222221,0)" xlink:href="#bu"/><use transform="matrix(0.05555555555555555,0,0,0.05555555555555555,85.38888888888889,0)" xlink:href="#bp"/></g><g id="Q"><use transform="matrix(0.05555555555555555,0,0,0.05555555555555555,0,0)" xlink:href="#bB"/><use transform="matrix(0.05555555555555555,0,0,0.05555555555555555,5.555555555555555,0)" xlink:href="#bu"/><use transform="matrix(0.05555555555555555,0,0,0.05555555555555555,17.72222222222222,0)" xlink:href="#bT"/></g><g id="R"><use transform="matrix(0.05555555555555555,0,0,0.05555555555555555,0,0)" xlink:href="#bA"/><use transform="matrix(0.05555555555555555,0,0,0.05555555555555555,12.166666666666666,0)" xlink:href="#bR"/><use transform="matrix(0.05555555555555555,0,0,0.05555555555555555,19.944444444444443,0)" xlink:href="#bu"/><use transform="matrix(0.05555555555555555,0,0,0.05555555555555555,32.11111111111111,0)" xlink:href="#bq"/><use transform="matrix(0.05555555555555555,0,0,0.05555555555555555,44.27777777777777,0)" xlink:href="#bw"/><use transform="matrix(0.05555555555555555,0,0,0.05555555555555555,56.444444444444436,0)" xlink:href="#bS"/><use transform="matrix(0.05555555555555555,0,0,0.05555555555555555,67.55555555555554,0)" xlink:href="#bm"/><use transform="matrix(0.05555555555555555,0,0,0.05555555555555555,74.16666666666666,0)" xlink:href="#bu"/><use transform="matrix(0.05555555555555555,0,0,0.05555555555555555,86.33333333333333,0)" xlink:href="#bT"/></g><path d="M123 10C108 53 80 86 19 72V37c35 8 53-11 59-39L3-190h52l48 148c12-52 28-100 44-148h51" id="cc"/><use transform="matrix(0.05555555555555555,0,0,0.05555555555555555,0,0)" xlink:href="#cc" id="S"/><g id="T"><use transform="matrix(0.05555555555555555,0,0,0.05555555555555555,0,0)" xlink:href="#bT"/><use transform="matrix(0.05555555555555555,0,0,0.05555555555555555,11.11111111111111,0)" xlink:href="#bw"/></g><g id="U"><use transform="matrix(0.05555555555555555,0,0,0.05555555555555555,0,0)" xlink:href="#bo"/><use transform="matrix(0.05555555555555555,0,0,0.05555555555555555,11.11111111111111,0)" xlink:href="#bT"/><use transform="matrix(0.05555555555555555,0,0,0.05555555555555555,22.22222222222222,0)" xlink:href="#bm"/><use transform="matrix(0.05555555555555555,0,0,0.05555555555555555,28.833333333333332,0)" xlink:href="#br"/><use transform="matrix(0.05555555555555555,0,0,0.05555555555555555,39.94444444444444,0)" xlink:href="#bq"/><use transform="matrix(0.05555555555555555,0,0,0.05555555555555555,52.11111111111111,0)" xlink:href="#bu"/></g><g id="V"><use transform="matrix(0.04938271604938272,0,0,0.04938271604938272,0,0)" xlink:href="#bR"/><use transform="matrix(0.04938271604938272,0,0,0.04938271604938272,6.913580246913581,0)" xlink:href="#bo"/><use transform="matrix(0.04938271604938272,0,0,0.04938271604938272,16.790123456790127,0)" xlink:href="#br"/><use transform="matrix(0.04938271604938272,0,0,0.04938271604938272,26.666666666666668,0)" xlink:href="#bB"/><use transform="matrix(0.04938271604938272,0,0,0.04938271604938272,31.60493827160494,0)" xlink:href="#bn"/><use transform="matrix(0.04938271604938272,0,0,0.04938271604938272,36.543209876543216,0)" xlink:href="#bV"/><use transform="matrix(0.04938271604938272,0,0,0.04938271604938272,45.4320987654321,0)" xlink:href="#br"/><use transform="matrix(0.04938271604938272,0,0,0.04938271604938272,55.308641975308646,0)" xlink:href="#bR"/></g><g id="W"><use transform="matrix(0.04938271604938272,0,0,0.04938271604938272,0,0)" xlink:href="#bA"/><use transform="matrix(0.04938271604938272,0,0,0.04938271604938272,10.814814814814815,0)" xlink:href="#bo"/><use transform="matrix(0.04938271604938272,0,0,0.04938271604938272,20.69135802469136,0)" xlink:href="#bq"/><use transform="matrix(0.04938271604938272,0,0,0.04938271604938272,31.506172839506174,0)" xlink:href="#bn"/><use transform="matrix(0.04938271604938272,0,0,0.04938271604938272,36.44444444444445,0)" xlink:href="#bq"/><use transform="matrix(0.04938271604938272,0,0,0.04938271604938272,47.25925925925927,0)" xlink:href="#bu"/></g><use transform="matrix(0.04938271604938272,0,0,0.04938271604938272,0,0)" xlink:href="#cc" id="X"/><g id="Y"><use transform="matrix(0.04938271604938272,0,0,0.04938271604938272,0,0)" xlink:href="#bR"/><use transform="matrix(0.04938271604938272,0,0,0.04938271604938272,6.913580246913581,0)" xlink:href="#bo"/><use transform="matrix(0.04938271604938272,0,0,0.04938271604938272,16.790123456790127,0)" xlink:href="#bY"/><use transform="matrix(0.04938271604938272,0,0,0.04938271604938272,27.604938271604947,0)" xlink:href="#bn"/><use transform="matrix(0.04938271604938272,0,0,0.04938271604938272,32.543209876543216,0)" xlink:href="#bT"/><use transform="matrix(0.04938271604938272,0,0,0.04938271604938272,42.41975308641976,0)" xlink:href="#bm"/><use transform="matrix(0.04938271604938272,0,0,0.04938271604938272,48.296296296296305,0)" xlink:href="#bR"/><use transform="matrix(0.04938271604938272,0,0,0.04938271604938272,55.209876543209894,0)" xlink:href="#br"/><use transform="matrix(0.04938271604938272,0,0,0.04938271604938272,65.08641975308643,0)" xlink:href="#bR"/></g><g id="Z"><use transform="matrix(0.04938271604938272,0,0,0.04938271604938272,0,0)" xlink:href="#bS"/><use transform="matrix(0.04938271604938272,0,0,0.04938271604938272,9.876543209876544,0)" xlink:href="#bu"/><use transform="matrix(0.04938271604938272,0,0,0.04938271604938272,20.69135802469136,0)" xlink:href="#bT"/><use transform="matrix(0.04938271604938272,0,0,0.04938271604938272,30.567901234567906,0)" xlink:href="#bm"/><use transform="matrix(0.04938271604938272,0,0,0.04938271604938272,36.44444444444445,0)" xlink:href="#bu"/></g><g id="aa"><use transform="matrix(0.04938271604938272,0,0,0.04938271604938272,0,0)" xlink:href="#bB"/><use transform="matrix(0.04938271604938272,0,0,0.04938271604938272,4.938271604938272,0)" xlink:href="#br"/></g><g id="ab"><use transform="matrix(0.04938271604938272,0,0,0.04938271604938272,0,0)" xlink:href="#bB"/><use transform="matrix(0.04938271604938272,0,0,0.04938271604938272,4.938271604938272,0)" xlink:href="#bn"/><use transform="matrix(0.04938271604938272,0,0,0.04938271604938272,9.876543209876544,0)" xlink:href="#bX"/><use transform="matrix(0.04938271604938272,0,0,0.04938271604938272,20.69135802469136,0)" xlink:href="#bR"/><use transform="matrix(0.04938271604938272,0,0,0.04938271604938272,27.604938271604947,0)" xlink:href="#bo"/><use transform="matrix(0.04938271604938272,0,0,0.04938271604938272,37.48148148148149,0)" xlink:href="#bm"/><use transform="matrix(0.04938271604938272,0,0,0.04938271604938272,43.35802469135803,0)" xlink:href="#br"/></g><g id="ac"><use transform="matrix(0.05555555555555555,0,0,0.05555555555555555,0,0)" xlink:href="#bR"/><use transform="matrix(0.05555555555555555,0,0,0.05555555555555555,7.777777777777778,0)" xlink:href="#bo"/><use transform="matrix(0.05555555555555555,0,0,0.05555555555555555,18.88888888888889,0)" xlink:href="#bS"/><use transform="matrix(0.05555555555555555,0,0,0.05555555555555555,30,0)" xlink:href="#bn"/><use transform="matrix(0.05555555555555555,0,0,0.05555555555555555,35.55555555555556,0)" xlink:href="#bX"/><use transform="matrix(0.05555555555555555,0,0,0.05555555555555555,47.72222222222222,0)" xlink:href="#bn"/><use transform="matrix(0.05555555555555555,0,0,0.05555555555555555,53.27777777777778,0)" xlink:href="#bR"/></g><g id="ad"><use transform="matrix(0.05555555555555555,0,0,0.05555555555555555,0,0)" xlink:href="#bB"/><use transform="matrix(0.05555555555555555,0,0,0.05555555555555555,5.555555555555555,0)" xlink:href="#bu"/><use transform="matrix(0.05555555555555555,0,0,0.05555555555555555,17.72222222222222,0)" xlink:href="#bT"/></g><g id="ae"><use transform="matrix(0.05555555555555555,0,0,0.05555555555555555,0,0)" xlink:href="#bA"/><use transform="matrix(0.05555555555555555,0,0,0.05555555555555555,12.166666666666666,0)" xlink:href="#bR"/><use transform="matrix(0.05555555555555555,0,0,0.05555555555555555,19.944444444444443,0)" xlink:href="#bu"/><use transform="matrix(0.05555555555555555,0,0,0.05555555555555555,32.11111111111111,0)" xlink:href="#bq"/><use transform="matrix(0.05555555555555555,0,0,0.05555555555555555,44.27777777777777,0)" xlink:href="#bw"/><use transform="matrix(0.05555555555555555,0,0,0.05555555555555555,56.444444444444436,0)" xlink:href="#bS"/><use transform="matrix(0.05555555555555555,0,0,0.05555555555555555,67.55555555555554,0)" xlink:href="#bm"/><use transform="matrix(0.05555555555555555,0,0,0.05555555555555555,74.16666666666666,0)" xlink:href="#bu"/><use transform="matrix(0.05555555555555555,0,0,0.05555555555555555,86.33333333333333,0)" xlink:href="#bT"/></g><g id="af"><use transform="matrix(0.05555555555555555,0,0,0.05555555555555555,0,0)" xlink:href="#br"/><use transform="matrix(0.05555555555555555,0,0,0.05555555555555555,11.11111111111111,0)" xlink:href="#bp"/><use transform="matrix(0.05555555555555555,0,0,0.05555555555555555,23.27777777777778,0)" xlink:href="#bu"/><use transform="matrix(0.05555555555555555,0,0,0.05555555555555555,35.44444444444444,0)" xlink:href="#bm"/><use transform="matrix(0.05555555555555555,0,0,0.05555555555555555,42.05555555555556,0)" xlink:href="#br"/><use transform="matrix(0.05555555555555555,0,0,0.05555555555555555,53.16666666666667,0)" xlink:href="#bR"/></g><g id="ag"><use transform="matrix(0.05555555555555555,0,0,0.05555555555555555,0,0)" xlink:href="#bB"/><use transform="matrix(0.05555555555555555,0,0,0.05555555555555555,5.555555555555555,0)" xlink:href="#bn"/><use transform="matrix(0.05555555555555555,0,0,0.05555555555555555,11.11111111111111,0)" xlink:href="#bX"/><use transform="matrix(0.05555555555555555,0,0,0.05555555555555555,23.27777777777778,0)" xlink:href="#bR"/><use transform="matrix(0.05555555555555555,0,0,0.05555555555555555,31.05555555555556,0)" xlink:href="#bo"/><use transform="matrix(0.05555555555555555,0,0,0.05555555555555555,42.16666666666667,0)" xlink:href="#bm"/><use transform="matrix(0.05555555555555555,0,0,0.05555555555555555,48.777777777777786,0)" xlink:href="#br"/></g><g id="ah"><use transform="matrix(0.05555555555555555,0,0,0.05555555555555555,0,0)" xlink:href="#bq"/><use transform="matrix(0.05555555555555555,0,0,0.05555555555555555,12.166666666666666,0)" xlink:href="#bo"/></g><g id="ai"><use transform="matrix(0.05555555555555555,0,0,0.05555555555555555,0,0)" xlink:href="#bn"/><use transform="matrix(0.05555555555555555,0,0,0.05555555555555555,5.555555555555555,0)" xlink:href="#bp"/><use transform="matrix(0.05555555555555555,0,0,0.05555555555555555,17.72222222222222,0)" xlink:href="#bZ"/><use transform="matrix(0.05555555555555555,0,0,0.05555555555555555,28.833333333333332,0)" xlink:href="#bo"/><use transform="matrix(0.05555555555555555,0,0,0.05555555555555555,39.94444444444444,0)" xlink:href="#bp"/><use transform="matrix(0.05555555555555555,0,0,0.05555555555555555,52.11111111111111,0)" xlink:href="#bm"/><use transform="matrix(0.05555555555555555,0,0,0.05555555555555555,58.72222222222222,0)" xlink:href="#br"/><use transform="matrix(0.05555555555555555,0,0,0.05555555555555555,69.83333333333333,0)" xlink:href="#bR"/><use transform="matrix(0.05555555555555555,0,0,0.05555555555555555,77.6111111111111,0)" xlink:href="#bn"/><use transform="matrix(0.05555555555555555,0,0,0.05555555555555555,83.16666666666666,0)" xlink:href="#bu"/></g><path d="M109 61C26 68-9-28 56-69c17-10 36-20 38-46h47c-2 56-65 53-71 103-2 21 17 33 39 33 26 0 39-15 44-37l50 2c-8 47-39 70-94 75zm33-251v47H91v-47h51" id="cd"/><g id="aj"><use transform="matrix(0.05555555555555555,0,0,0.05555555555555555,0,0)" xlink:href="#cd"/><use transform="matrix(0.05555555555555555,0,0,0.05555555555555555,12.166666666666666,0)" xlink:href="#by"/><use transform="matrix(0.05555555555555555,0,0,0.05555555555555555,25.5,0)" xlink:href="#bB"/></g><g id="ak"><use transform="matrix(0.05555555555555555,0,0,0.05555555555555555,0,0)" xlink:href="#bA"/><use transform="matrix(0.05555555555555555,0,0,0.05555555555555555,12.166666666666666,0)" xlink:href="#bR"/><use transform="matrix(0.05555555555555555,0,0,0.05555555555555555,19.944444444444443,0)" xlink:href="#bu"/><use transform="matrix(0.05555555555555555,0,0,0.05555555555555555,32.11111111111111,0)" xlink:href="#bq"/><use transform="matrix(0.05555555555555555,0,0,0.05555555555555555,44.27777777777777,0)" xlink:href="#bw"/><use transform="matrix(0.05555555555555555,0,0,0.05555555555555555,56.444444444444436,0)" xlink:href="#bS"/><use transform="matrix(0.05555555555555555,0,0,0.05555555555555555,67.55555555555554,0)" xlink:href="#bm"/><use transform="matrix(0.05555555555555555,0,0,0.05555555555555555,74.16666666666666,0)" xlink:href="#bu"/></g><g id="al"><use transform="matrix(0.05555555555555555,0,0,0.05555555555555555,0,0)" xlink:href="#bo"/><use transform="matrix(0.05555555555555555,0,0,0.05555555555555555,11.11111111111111,0)" xlink:href="#bT"/><use transform="matrix(0.05555555555555555,0,0,0.05555555555555555,22.22222222222222,0)" xlink:href="#bm"/><use transform="matrix(0.05555555555555555,0,0,0.05555555555555555,28.833333333333332,0)" xlink:href="#br"/></g><g id="am"><use transform="matrix(0.05555555555555555,0,0,0.05555555555555555,0,0)" xlink:href="#bq"/><use transform="matrix(0.05555555555555555,0,0,0.05555555555555555,12.166666666666666,0)" xlink:href="#bn"/><use transform="matrix(0.05555555555555555,0,0,0.05555555555555555,17.72222222222222,0)" xlink:href="#bT"/><use transform="matrix(0.05555555555555555,0,0,0.05555555555555555,28.833333333333332,0)" xlink:href="#bA"/><use transform="matrix(0.05555555555555555,0,0,0.05555555555555555,41,0)" xlink:href="#bu"/><use transform="matrix(0.05555555555555555,0,0,0.05555555555555555,53.166666666666664,0)" xlink:href="#bp"/><use transform="matrix(0.05555555555555555,0,0,0.05555555555555555,65.33333333333333,0)" xlink:href="#bn"/><use transform="matrix(0.05555555555555555,0,0,0.05555555555555555,70.88888888888889,0)" xlink:href="#bX"/><use transform="matrix(0.05555555555555555,0,0,0.05555555555555555,83.05555555555556,0)" xlink:href="#bB"/><use transform="matrix(0.05555555555555555,0,0,0.05555555555555555,88.61111111111111,0)" xlink:href="#bo"/><use transform="matrix(0.05555555555555555,0,0,0.05555555555555555,99.72222222222223,0)" xlink:href="#bU"/></g><g id="an"><use transform="matrix(0.05555555555555555,0,0,0.05555555555555555,0,0)" xlink:href="#by"/><use transform="matrix(0.05555555555555555,0,0,0.05555555555555555,13.333333333333332,0)" xlink:href="#bB"/></g><g id="ao"><use transform="matrix(0.05555555555555555,0,0,0.05555555555555555,0,0)" xlink:href="#bS"/><use transform="matrix(0.05555555555555555,0,0,0.05555555555555555,11.11111111111111,0)" xlink:href="#bB"/><use transform="matrix(0.05555555555555555,0,0,0.05555555555555555,16.666666666666664,0)" xlink:href="#bn"/><use transform="matrix(0.05555555555555555,0,0,0.05555555555555555,22.22222222222222,0)" xlink:href="#bo"/><use transform="matrix(0.05555555555555555,0,0,0.05555555555555555,33.33333333333333,0)" xlink:href="#bp"/><use transform="matrix(0.05555555555555555,0,0,0.05555555555555555,45.49999999999999,0)" xlink:href="#bm"/><use transform="matrix(0.05555555555555555,0,0,0.05555555555555555,52.1111111111111,0)" xlink:href="#bo"/></g><g id="ap"><use transform="matrix(0.05555555555555555,0,0,0.05555555555555555,0,0)" xlink:href="#bT"/><use transform="matrix(0.05555555555555555,0,0,0.05555555555555555,11.11111111111111,0)" xlink:href="#bu"/><use transform="matrix(0.05555555555555555,0,0,0.05555555555555555,23.27777777777778,0)" xlink:href="#bB"/><use transform="matrix(0.05555555555555555,0,0,0.05555555555555555,28.83333333333334,0)" xlink:href="#bn"/><use transform="matrix(0.05555555555555555,0,0,0.05555555555555555,34.38888888888889,0)" xlink:href="#bS"/><use transform="matrix(0.05555555555555555,0,0,0.05555555555555555,45.5,0)" xlink:href="#bn"/><use transform="matrix(0.05555555555555555,0,0,0.05555555555555555,51.05555555555556,0)" xlink:href="#bm"/><use transform="matrix(0.05555555555555555,0,0,0.05555555555555555,57.66666666666668,0)" xlink:href="#br"/></g><g id="aq"><use transform="matrix(0.05555555555555555,0,0,0.05555555555555555,0,0)" xlink:href="#bw"/><use transform="matrix(0.05555555555555555,0,0,0.05555555555555555,12.166666666666666,0)" xlink:href="#bp"/></g><g id="ar"><use transform="matrix(0.05555555555555555,0,0,0.05555555555555555,0,0)" xlink:href="#bT"/><use transform="matrix(0.05555555555555555,0,0,0.05555555555555555,11.11111111111111,0)" xlink:href="#bu"/><use transform="matrix(0.05555555555555555,0,0,0.05555555555555555,23.27777777777778,0)" xlink:href="#bB"/><use transform="matrix(0.05555555555555555,0,0,0.05555555555555555,28.83333333333334,0)" xlink:href="#bn"/><use transform="matrix(0.05555555555555555,0,0,0.05555555555555555,34.38888888888889,0)" xlink:href="#bS"/><use transform="matrix(0.05555555555555555,0,0,0.05555555555555555,45.5,0)" xlink:href="#bn"/><use transform="matrix(0.05555555555555555,0,0,0.05555555555555555,51.05555555555556,0)" xlink:href="#bm"/><use transform="matrix(0.05555555555555555,0,0,0.05555555555555555,57.66666666666668,0)" xlink:href="#br"/><use transform="matrix(0.05555555555555555,0,0,0.05555555555555555,68.77777777777779,0)" xlink:href="#bR"/></g><g id="as"><use transform="matrix(0.05555555555555555,0,0,0.05555555555555555,0,0)" xlink:href="#br"/><use transform="matrix(0.05555555555555555,0,0,0.05555555555555555,11.11111111111111,0)" xlink:href="#bB"/></g><g id="at"><use transform="matrix(0.05555555555555555,0,0,0.05555555555555555,0,0)" xlink:href="#bq"/><use transform="matrix(0.05555555555555555,0,0,0.05555555555555555,12.166666666666666,0)" xlink:href="#bw"/><use transform="matrix(0.05555555555555555,0,0,0.05555555555555555,24.333333333333332,0)" xlink:href="#bo"/><use transform="matrix(0.05555555555555555,0,0,0.05555555555555555,35.44444444444444,0)" xlink:href="#bx"/><use transform="matrix(0.05555555555555555,0,0,0.05555555555555555,47.61111111111111,0)" xlink:href="#bu"/></g><g id="au"><use transform="matrix(0.05555555555555555,0,0,0.05555555555555555,0,0)" xlink:href="#bB"/><use transform="matrix(0.05555555555555555,0,0,0.05555555555555555,5.555555555555555,0)" xlink:href="#br"/></g><g id="av"><use transform="matrix(0.05555555555555555,0,0,0.05555555555555555,0,0)" xlink:href="#bR"/><use transform="matrix(0.05555555555555555,0,0,0.05555555555555555,7.777777777777778,0)" xlink:href="#bo"/><use transform="matrix(0.05555555555555555,0,0,0.05555555555555555,18.88888888888889,0)" xlink:href="#bA"/><use transform="matrix(0.05555555555555555,0,0,0.05555555555555555,31.05555555555556,0)" xlink:href="#bu"/><use transform="matrix(0.05555555555555555,0,0,0.05555555555555555,43.22222222222222,0)" xlink:href="#bT"/><use transform="matrix(0.05555555555555555,0,0,0.05555555555555555,54.33333333333333,0)" xlink:href="#bn"/><use transform="matrix(0.05555555555555555,0,0,0.05555555555555555,59.888888888888886,0)" xlink:href="#bS"/><use transform="matrix(0.05555555555555555,0,0,0.05555555555555555,71,0)" xlink:href="#bn"/><use transform="matrix(0.05555555555555555,0,0,0.05555555555555555,76.55555555555556,0)" xlink:href="#bu"/><use transform="matrix(0.05555555555555555,0,0,0.05555555555555555,88.72222222222223,0)" xlink:href="#bp"/></g><g id="aw"><use transform="matrix(0.05555555555555555,0,0,0.05555555555555555,0,0)" xlink:href="#bq"/><use transform="matrix(0.05555555555555555,0,0,0.05555555555555555,12.166666666666666,0)" xlink:href="#bo"/><use transform="matrix(0.05555555555555555,0,0,0.05555555555555555,23.27777777777778,0)" xlink:href="#bB"/></g><g id="ax"><use transform="matrix(0.05555555555555555,0,0,0.05555555555555555,0,0)" xlink:href="#bA"/><use transform="matrix(0.05555555555555555,0,0,0.05555555555555555,12.166666666666666,0)" xlink:href="#bR"/><use transform="matrix(0.05555555555555555,0,0,0.05555555555555555,19.944444444444443,0)" xlink:href="#bu"/><use transform="matrix(0.05555555555555555,0,0,0.05555555555555555,32.11111111111111,0)" xlink:href="#bq"/><use transform="matrix(0.05555555555555555,0,0,0.05555555555555555,44.27777777777777,0)" xlink:href="#bw"/><use transform="matrix(0.05555555555555555,0,0,0.05555555555555555,56.444444444444436,0)" xlink:href="#bS"/><use transform="matrix(0.05555555555555555,0,0,0.05555555555555555,67.55555555555554,0)" xlink:href="#bm"/><use transform="matrix(0.05555555555555555,0,0,0.05555555555555555,74.16666666666666,0)" xlink:href="#bu"/></g><g id="ay"><use transform="matrix(0.05555555555555555,0,0,0.05555555555555555,0,0)" xlink:href="#bu"/><use transform="matrix(0.05555555555555555,0,0,0.05555555555555555,12.166666666666666,0)" xlink:href="#bR"/><use transform="matrix(0.05555555555555555,0,0,0.05555555555555555,19.944444444444443,0)" xlink:href="#bY"/><use transform="matrix(0.05555555555555555,0,0,0.05555555555555555,32.11111111111111,0)" xlink:href="#br"/><use transform="matrix(0.05555555555555555,0,0,0.05555555555555555,43.222222222222214,0)" xlink:href="#bp"/><use transform="matrix(0.05555555555555555,0,0,0.05555555555555555,55.38888888888888,0)" xlink:href="#bn"/><use transform="matrix(0.05555555555555555,0,0,0.05555555555555555,60.94444444444444,0)" xlink:href="#bV"/><use transform="matrix(0.05555555555555555,0,0,0.05555555555555555,70.94444444444443,0)" xlink:href="#br"/><use transform="matrix(0.05555555555555555,0,0,0.05555555555555555,82.05555555555554,0)" xlink:href="#bR"/></g><g id="az"><use transform="matrix(0.05555555555555555,0,0,0.05555555555555555,0,0)" xlink:href="#bA"/><use transform="matrix(0.05555555555555555,0,0,0.05555555555555555,12.166666666666666,0)" xlink:href="#bR"/><use transform="matrix(0.05555555555555555,0,0,0.05555555555555555,19.944444444444443,0)" xlink:href="#bu"/><use transform="matrix(0.05555555555555555,0,0,0.05555555555555555,32.11111111111111,0)" xlink:href="#bq"/><use transform="matrix(0.05555555555555555,0,0,0.05555555555555555,44.27777777777777,0)" xlink:href="#bw"/><use transform="matrix(0.05555555555555555,0,0,0.05555555555555555,56.444444444444436,0)" xlink:href="#bS"/><use transform="matrix(0.05555555555555555,0,0,0.05555555555555555,67.55555555555554,0)" xlink:href="#bm"/><use transform="matrix(0.05555555555555555,0,0,0.05555555555555555,74.16666666666666,0)" xlink:href="#bu"/><use transform="matrix(0.05555555555555555,0,0,0.05555555555555555,86.33333333333333,0)" xlink:href="#bT"/></g><g id="aA"><use transform="matrix(0.05555555555555555,0,0,0.05555555555555555,0,0)" xlink:href="#bT"/><use transform="matrix(0.05555555555555555,0,0,0.05555555555555555,11.11111111111111,0)" xlink:href="#bo"/><use transform="matrix(0.05555555555555555,0,0,0.05555555555555555,22.22222222222222,0)" xlink:href="#bY"/><use transform="matrix(0.05555555555555555,0,0,0.05555555555555555,34.388888888888886,0)" xlink:href="#bw"/><use transform="matrix(0.05555555555555555,0,0,0.05555555555555555,46.55555555555555,0)" xlink:href="#bp"/></g><g id="aB"><use transform="matrix(0.05555555555555555,0,0,0.05555555555555555,0,0)" xlink:href="#bS"/><use transform="matrix(0.05555555555555555,0,0,0.05555555555555555,11.11111111111111,0)" xlink:href="#br"/><use transform="matrix(0.05555555555555555,0,0,0.05555555555555555,22.22222222222222,0)" xlink:href="#bm"/><use transform="matrix(0.05555555555555555,0,0,0.05555555555555555,28.833333333333332,0)" xlink:href="#bo"/><use transform="matrix(0.05555555555555555,0,0,0.05555555555555555,39.94444444444444,0)" xlink:href="#bY"/><use transform="matrix(0.05555555555555555,0,0,0.05555555555555555,52.11111111111111,0)" xlink:href="#bu"/><use transform="matrix(0.05555555555555555,0,0,0.05555555555555555,64.27777777777777,0)" xlink:href="#bR"/><use transform="matrix(0.05555555555555555,0,0,0.05555555555555555,72.05555555555554,0)" xlink:href="#bn"/><use transform="matrix(0.05555555555555555,0,0,0.05555555555555555,77.6111111111111,0)" xlink:href="#br"/></g><g id="aD"><use transform="matrix(0.04938271604938272,0,0,0.04938271604938272,0,0)" xlink:href="#ca"/><use transform="matrix(0.04938271604938272,0,0,0.04938271604938272,10.814814814814815,0)" xlink:href="#br"/><use transform="matrix(0.04938271604938272,0,0,0.04938271604938272,20.69135802469136,0)" xlink:href="#cc"/></g><g id="aE"><use transform="matrix(0.04938271604938272,0,0,0.04938271604938272,0,0)" xlink:href="#bA"/><use transform="matrix(0.04938271604938272,0,0,0.04938271604938272,10.814814814814815,0)" xlink:href="#bR"/><use transform="matrix(0.04938271604938272,0,0,0.04938271604938272,17.728395061728396,0)" xlink:href="#bu"/><use transform="matrix(0.04938271604938272,0,0,0.04938271604938272,28.543209876543205,0)" xlink:href="#bq"/><use transform="matrix(0.04938271604938272,0,0,0.04938271604938272,39.358024691358025,0)" xlink:href="#bw"/><use transform="matrix(0.04938271604938272,0,0,0.04938271604938272,50.17283950617284,0)" xlink:href="#bS"/><use transform="matrix(0.04938271604938272,0,0,0.04938271604938272,60.04938271604939,0)" xlink:href="#bm"/><use transform="matrix(0.04938271604938272,0,0,0.04938271604938272,65.92592592592592,0)" xlink:href="#bu"/><use transform="matrix(0.04938271604938272,0,0,0.04938271604938272,76.74074074074073,0)" xlink:href="#bT"/></g><g id="aF"><use transform="matrix(0.04938271604938272,0,0,0.04938271604938272,0,0)" xlink:href="#bz"/><use transform="matrix(0.04938271604938272,0,0,0.04938271604938272,15.80246913580247,0)" xlink:href="#br"/><use transform="matrix(0.04938271604938272,0,0,0.04938271604938272,25.679012345679016,0)" xlink:href="#bB"/></g><g id="aG"><use transform="matrix(0.04938271604938272,0,0,0.04938271604938272,0,0)" xlink:href="#bo"/><use transform="matrix(0.04938271604938272,0,0,0.04938271604938272,9.876543209876544,0)" xlink:href="#bT"/><use transform="matrix(0.04938271604938272,0,0,0.04938271604938272,19.75308641975309,0)" xlink:href="#bm"/><use transform="matrix(0.04938271604938272,0,0,0.04938271604938272,25.629629629629633,0)" xlink:href="#br"/><use transform="matrix(0.04938271604938272,0,0,0.04938271604938272,35.50617283950618,0)" xlink:href="#bq"/><use transform="matrix(0.04938271604938272,0,0,0.04938271604938272,46.320987654320994,0)" xlink:href="#bu"/><use transform="matrix(0.04938271604938272,0,0,0.04938271604938272,57.135802469135804,0)" xlink:href="#bU"/></g><g id="aH"><use transform="matrix(0.07407407407407408,0,0,0.07407407407407408,0,0)" xlink:href="#bp"/><use transform="matrix(0.07407407407407408,0,0,0.07407407407407408,16.222222222222225,0)" xlink:href="#bu"/></g><g id="aI"><use transform="matrix(0.04938271604938272,0,0,0.04938271604938272,0,0)" xlink:href="#bT"/><use transform="matrix(0.04938271604938272,0,0,0.04938271604938272,9.876543209876544,0)" xlink:href="#bo"/><use transform="matrix(0.04938271604938272,0,0,0.04938271604938272,19.75308641975309,0)" xlink:href="#bA"/><use transform="matrix(0.04938271604938272,0,0,0.04938271604938272,30.567901234567906,0)" xlink:href="#br"/><use transform="matrix(0.04938271604938272,0,0,0.04938271604938272,40.44444444444445,0)" xlink:href="#bR"/><use transform="matrix(0.04938271604938272,0,0,0.04938271604938272,47.35802469135803,0)" xlink:href="#br"/><use transform="matrix(0.04938271604938272,0,0,0.04938271604938272,57.23456790123457,0)" xlink:href="#bR"/></g><g id="aJ"><use transform="matrix(0.04938271604938272,0,0,0.04938271604938272,0,0)" xlink:href="#bB"/><use transform="matrix(0.04938271604938272,0,0,0.04938271604938272,4.938271604938272,0)" xlink:href="#bu"/><use transform="matrix(0.04938271604938272,0,0,0.04938271604938272,15.753086419753087,0)" xlink:href="#bT"/></g><g id="aK"><use transform="matrix(0.04938271604938272,0,0,0.04938271604938272,0,0)" xlink:href="#bA"/><use transform="matrix(0.04938271604938272,0,0,0.04938271604938272,10.814814814814815,0)" xlink:href="#bR"/><use transform="matrix(0.04938271604938272,0,0,0.04938271604938272,17.728395061728396,0)" xlink:href="#bu"/><use transform="matrix(0.04938271604938272,0,0,0.04938271604938272,28.543209876543205,0)" xlink:href="#bq"/><use transform="matrix(0.04938271604938272,0,0,0.04938271604938272,39.358024691358025,0)" xlink:href="#bw"/><use transform="matrix(0.04938271604938272,0,0,0.04938271604938272,50.17283950617284,0)" xlink:href="#bS"/><use transform="matrix(0.04938271604938272,0,0,0.04938271604938272,60.04938271604939,0)" xlink:href="#bm"/><use transform="matrix(0.04938271604938272,0,0,0.04938271604938272,65.92592592592592,0)" xlink:href="#bu"/><use transform="matrix(0.04938271604938272,0,0,0.04938271604938272,76.74074074074073,0)" xlink:href="#bT"/></g><g id="aL"><use transform="matrix(0.04938271604938272,0,0,0.04938271604938272,0,0)" xlink:href="#bo"/><use transform="matrix(0.04938271604938272,0,0,0.04938271604938272,9.876543209876544,0)" xlink:href="#bT"/><use transform="matrix(0.04938271604938272,0,0,0.04938271604938272,19.75308641975309,0)" xlink:href="#bm"/><use transform="matrix(0.04938271604938272,0,0,0.04938271604938272,25.629629629629633,0)" xlink:href="#br"/><use transform="matrix(0.04938271604938272,0,0,0.04938271604938272,35.50617283950618,0)" xlink:href="#bq"/><use transform="matrix(0.04938271604938272,0,0,0.04938271604938272,46.320987654320994,0)" xlink:href="#bu"/></g><use transform="matrix(0.04938271604938272,0,0,0.04938271604938272,0,0)" xlink:href="#cc" id="aM"/><g id="aN"><use transform="matrix(0.04938271604938272,0,0,0.04938271604938272,0,0)" xlink:href="#br"/><use transform="matrix(0.04938271604938272,0,0,0.04938271604938272,9.876543209876544,0)" xlink:href="#bp"/><use transform="matrix(0.04938271604938272,0,0,0.04938271604938272,20.69135802469136,0)" xlink:href="#bu"/><use transform="matrix(0.04938271604938272,0,0,0.04938271604938272,31.506172839506174,0)" xlink:href="#bm"/><use transform="matrix(0.04938271604938272,0,0,0.04938271604938272,37.38271604938272,0)" xlink:href="#br"/><use transform="matrix(0.04938271604938272,0,0,0.04938271604938272,47.25925925925927,0)" xlink:href="#bR"/></g><g id="aO"><use transform="matrix(0.04938271604938272,0,0,0.04938271604938272,0,0)" xlink:href="#bA"/><use transform="matrix(0.04938271604938272,0,0,0.04938271604938272,10.814814814814815,0)" xlink:href="#bo"/><use transform="matrix(0.04938271604938272,0,0,0.04938271604938272,20.69135802469136,0)" xlink:href="#bR"/><use transform="matrix(0.04938271604938272,0,0,0.04938271604938272,27.604938271604947,0)" xlink:href="#bq"/><use transform="matrix(0.04938271604938272,0,0,0.04938271604938272,38.41975308641976,0)" xlink:href="#bn"/><use transform="matrix(0.04938271604938272,0,0,0.04938271604938272,43.35802469135803,0)" xlink:href="#bq"/><use transform="matrix(0.04938271604938272,0,0,0.04938271604938272,54.17283950617284,0)" xlink:href="#br"/><use transform="matrix(0.04938271604938272,0,0,0.04938271604938272,64.0493827160494,0)" xlink:href="#bT"/></g><g id="aP"><use transform="matrix(0.05555555555555555,0,0,0.05555555555555555,0,0)" xlink:href="#bo"/><use transform="matrix(0.05555555555555555,0,0,0.05555555555555555,11.11111111111111,0)" xlink:href="#bz"/><use transform="matrix(0.05555555555555555,0,0,0.05555555555555555,28.888888888888886,0)" xlink:href="#bA"/><use transform="matrix(0.05555555555555555,0,0,0.05555555555555555,41.05555555555556,0)" xlink:href="#bB"/><use transform="matrix(0.05555555555555555,0,0,0.05555555555555555,46.611111111111114,0)" xlink:href="#bo"/><use transform="matrix(0.05555555555555555,0,0,0.05555555555555555,57.72222222222223,0)" xlink:href="#br"/><use transform="matrix(0.05555555555555555,0,0,0.05555555555555555,68.83333333333334,0)" xlink:href="#bq"/><use transform="matrix(0.05555555555555555,0,0,0.05555555555555555,81.00000000000001,0)" xlink:href="#bu"/></g><g id="aQ"><use transform="matrix(0.05555555555555555,0,0,0.05555555555555555,0,0)" xlink:href="#bX"/><use transform="matrix(0.05555555555555555,0,0,0.05555555555555555,12.166666666666666,0)" xlink:href="#bw"/><use transform="matrix(0.05555555555555555,0,0,0.05555555555555555,24.333333333333332,0)" xlink:href="#bT"/><use transform="matrix(0.05555555555555555,0,0,0.05555555555555555,35.44444444444444,0)" xlink:href="#bS"/><use transform="matrix(0.05555555555555555,0,0,0.05555555555555555,46.55555555555556,0)" xlink:href="#br"/></g><g id="aR"><use transform="matrix(0.05555555555555555,0,0,0.05555555555555555,0,0)" xlink:href="#bo"/><use transform="matrix(0.05555555555555555,0,0,0.05555555555555555,11.11111111111111,0)" xlink:href="#bB"/></g><g id="aS"><use transform="matrix(0.07407407407407408,0,0,0.07407407407407408,0,0)" xlink:href="#bH"/><use transform="matrix(0.07407407407407408,0,0,0.07407407407407408,13.333333333333336,0)" xlink:href="#bG"/></g><g id="aT"><use transform="matrix(0.07407407407407408,0,0,0.07407407407407408,0,0)" xlink:href="#bJ"/><use transform="matrix(0.07407407407407408,0,0,0.07407407407407408,14.814814814814817,0)" xlink:href="#bI"/></g><g id="aU"><use transform="matrix(0.06172839506172839,0,0,0.06172839506172839,0,0)" xlink:href="#bD"/><use transform="matrix(0.06172839506172839,0,0,0.06172839506172839,7.345679012345679,0)" xlink:href="#bE"/><use transform="matrix(0.06172839506172839,0,0,0.06172839506172839,19.691358024691358,0)" xlink:href="#bL"/><use transform="matrix(0.06172839506172839,0,0,0.06172839506172839,25.864197530864196,0)" xlink:href="#bG"/><use transform="matrix(0.06172839506172839,0,0,0.06172839506172839,30.74074074074074,0)" xlink:href="#bD"/><use transform="matrix(0.06172839506172839,0,0,0.06172839506172839,38.08641975308642,0)" xlink:href="#bM"/><use transform="matrix(0.06172839506172839,0,0,0.06172839506172839,50.432098765432094,0)" xlink:href="#bD"/><use transform="matrix(0.06172839506172839,0,0,0.06172839506172839,57.77777777777777,0)" xlink:href="#bH"/><use transform="matrix(0.06172839506172839,0,0,0.06172839506172839,68.88888888888889,0)" xlink:href="#bE"/></g><g id="aV"><use transform="matrix(0.06172839506172839,0,0,0.06172839506172839,0,0)" xlink:href="#bK"/><use transform="matrix(0.06172839506172839,0,0,0.06172839506172839,12.345679012345679,0)" xlink:href="#bE"/></g><g id="aW"><use transform="matrix(0.06172839506172839,0,0,0.06172839506172839,0,0)" xlink:href="#bP"/><use transform="matrix(0.06172839506172839,0,0,0.06172839506172839,4.876543209876543,0)" xlink:href="#bM"/></g><g id="aX"><use transform="matrix(0.06172839506172839,0,0,0.06172839506172839,0,0)" xlink:href="#bL"/><use transform="matrix(0.06172839506172839,0,0,0.06172839506172839,6.172839506172839,0)" xlink:href="#bG"/><use transform="matrix(0.06172839506172839,0,0,0.06172839506172839,11.049382716049383,0)" xlink:href="#bE"/><use transform="matrix(0.06172839506172839,0,0,0.06172839506172839,23.395061728395063,0)" xlink:href="#bJ"/><use transform="matrix(0.06172839506172839,0,0,0.06172839506172839,35.74074074074074,0)" xlink:href="#bK"/><use transform="matrix(0.06172839506172839,0,0,0.06172839506172839,48.08641975308642,0)" xlink:href="#bM"/></g><g id="aY"><use transform="matrix(0.05555555555555555,0,0,0.05555555555555555,0,0)" xlink:href="#bo"/><use transform="matrix(0.05555555555555555,0,0,0.05555555555555555,11.11111111111111,0)" xlink:href="#bT"/><use transform="matrix(0.05555555555555555,0,0,0.05555555555555555,22.22222222222222,0)" xlink:href="#bm"/><use transform="matrix(0.05555555555555555,0,0,0.05555555555555555,28.833333333333332,0)" xlink:href="#br"/></g><g id="aZ"><use transform="matrix(0.05555555555555555,0,0,0.05555555555555555,0,0)" xlink:href="#bo"/><use transform="matrix(0.05555555555555555,0,0,0.05555555555555555,11.11111111111111,0)" xlink:href="#bp"/></g><path d="M147 0L96-86 75-71V0H25v-261h50v150l67-79h53l-66 74L201 0h-54" id="ce"/><g id="ba"><use transform="matrix(0.05555555555555555,0,0,0.05555555555555555,0,0)" xlink:href="#bT"/><use transform="matrix(0.05555555555555555,0,0,0.05555555555555555,11.11111111111111,0)" xlink:href="#bm"/><use transform="matrix(0.05555555555555555,0,0,0.05555555555555555,17.72222222222222,0)" xlink:href="#bu"/><use transform="matrix(0.05555555555555555,0,0,0.05555555555555555,29.888888888888886,0)" xlink:href="#bS"/><use transform="matrix(0.05555555555555555,0,0,0.05555555555555555,41,0)" xlink:href="#ce"/><use transform="matrix(0.05555555555555555,0,0,0.05555555555555555,52.111111111111114,0)" xlink:href="#bU"/></g><g id="bb"><use transform="matrix(0.07407407407407408,0,0,0.07407407407407408,0,0)" xlink:href="#bJ"/><use transform="matrix(0.07407407407407408,0,0,0.07407407407407408,14.814814814814817,0)" xlink:href="#bI"/></g><g id="bc"><use transform="matrix(0.07407407407407408,0,0,0.07407407407407408,0,0)" xlink:href="#bH"/><use transform="matrix(0.07407407407407408,0,0,0.07407407407407408,13.333333333333336,0)" xlink:href="#bG"/></g><g id="bd"><use transform="matrix(0.05,0,0,0.05,0,0)" xlink:href="#bo"/><use transform="matrix(0.05,0,0,0.05,10,0)" xlink:href="#bp"/><use transform="matrix(0.05,0,0,0.05,20.950000000000003,0)" xlink:href="#bm"/><use transform="matrix(0.05,0,0,0.05,26.900000000000002,0)" xlink:href="#bR"/><use transform="matrix(0.05,0,0,0.05,33.900000000000006,0)" xlink:href="#bo"/><use transform="matrix(0.05,0,0,0.05,43.900000000000006,0)" xlink:href="#bY"/><use transform="matrix(0.05,0,0,0.05,54.85,0)" xlink:href="#br"/><use transform="matrix(0.05,0,0,0.05,64.85000000000001,0)" xlink:href="#bR"/></g><g id="be"><use transform="matrix(0.05,0,0,0.05,0,0)" xlink:href="#bo"/><use transform="matrix(0.05,0,0,0.05,10,0)" xlink:href="#bB"/></g><g id="bf"><use transform="matrix(0.05,0,0,0.05,0,0)" xlink:href="#bA"/><use transform="matrix(0.05,0,0,0.05,10.950000000000001,0)" xlink:href="#bR"/><use transform="matrix(0.05,0,0,0.05,17.950000000000003,0)" xlink:href="#bu"/><use transform="matrix(0.05,0,0,0.05,28.900000000000006,0)" xlink:href="#bq"/><use transform="matrix(0.05,0,0,0.05,39.85000000000001,0)" xlink:href="#bS"/><use transform="matrix(0.05,0,0,0.05,49.85000000000001,0)" xlink:href="#bw"/><use transform="matrix(0.05,0,0,0.05,60.80000000000001,0)" xlink:href="#bm"/><use transform="matrix(0.05,0,0,0.05,66.75000000000001,0)" xlink:href="#bu"/></g><g id="bg"><use transform="matrix(0.05,0,0,0.05,0,0)" xlink:href="#br"/><use transform="matrix(0.05,0,0,0.05,10,0)" xlink:href="#bB"/></g><g id="bh"><use transform="matrix(0.05,0,0,0.05,0,0)" xlink:href="#bS"/><use transform="matrix(0.05,0,0,0.05,10,0)" xlink:href="#bB"/><use transform="matrix(0.05,0,0,0.05,15,0)" xlink:href="#bn"/><use transform="matrix(0.05,0,0,0.05,20,0)" xlink:href="#bo"/><use transform="matrix(0.05,0,0,0.05,30,0)" xlink:href="#bp"/><use transform="matrix(0.05,0,0,0.05,40.95,0)" xlink:href="#bm"/><use transform="matrix(0.05,0,0,0.05,46.900000000000006,0)" xlink:href="#bo"/></g><g id="bi"><use transform="matrix(0.05,0,0,0.05,0,0)" xlink:href="#bD"/><use transform="matrix(0.05,0,0,0.05,5.95,0)" xlink:href="#bE"/><use transform="matrix(0.05,0,0,0.05,15.949999999999998,0)" xlink:href="#bL"/><use transform="matrix(0.05,0,0,0.05,20.95,0)" xlink:href="#bG"/><use transform="matrix(0.05,0,0,0.05,24.9,0)" xlink:href="#bD"/><use transform="matrix(0.05,0,0,0.05,30.849999999999994,0)" xlink:href="#bM"/><use transform="matrix(0.05,0,0,0.05,40.849999999999994,0)" xlink:href="#bD"/><use transform="matrix(0.05,0,0,0.05,46.8,0)" xlink:href="#bH"/><use transform="matrix(0.05,0,0,0.05,55.79999999999999,0)" xlink:href="#bE"/></g><g id="bj"><use transform="matrix(0.05,0,0,0.05,0,0)" xlink:href="#bK"/><use transform="matrix(0.05,0,0,0.05,10,0)" xlink:href="#bE"/></g><g id="bk"><use transform="matrix(0.05,0,0,0.05,0,0)" xlink:href="#bP"/><use transform="matrix(0.05,0,0,0.05,3.95,0)" xlink:href="#bM"/></g><g id="bl"><use transform="matrix(0.05,0,0,0.05,0,0)" xlink:href="#bL"/><use transform="matrix(0.05,0,0,0.05,5,0)" xlink:href="#bG"/><use transform="matrix(0.05,0,0,0.05,8.95,0)" xlink:href="#bE"/><use transform="matrix(0.05,0,0,0.05,18.95,0)" xlink:href="#bJ"/><use transform="matrix(0.05,0,0,0.05,28.950000000000003,0)" xlink:href="#bK"/><use transform="matrix(0.05,0,0,0.05,38.95,0)" xlink:href="#bM"/></g></defs></g></svg>